<?xml version="1.0" encoding="utf-8" standalone="no"?>
<!DOCTYPE svg PUBLIC "-//W3C//DTD SVG 1.1//EN"
  "http://www.w3.org/Graphics/SVG/1.1/DTD/svg11.dtd">
<svg height="345.6pt" version="1.1" viewBox="0 0 460.8 345.6" width="460.8pt" xmlns="http://www.w3.org/2000/svg" xmlns:xlink="http://www.w3.org/1999/xlink">
 <metadata>
  <rdf:RDF xmlns:cc="http://creativecommons.org/ns#" xmlns:dc="http://purl.org/dc/elements/1.1/" xmlns:rdf="http://www.w3.org/1999/02/22-rdf-syntax-ns#">
   <cc:Work>
    <dc:type rdf:resource="http://purl.org/dc/dcmitype/StillImage"/>
    <dc:date>2022-01-05T02:47:04.821673</dc:date>
    <dc:format>image/svg+xml</dc:format>
    <dc:creator>
     <cc:Agent>
      <dc:title>Matplotlib v3.4.3, https://matplotlib.org/</dc:title>
     </cc:Agent>
    </dc:creator>
   </cc:Work>
  </rdf:RDF>
 </metadata>
 <defs>
  <style type="text/css">*{stroke-linecap:butt;stroke-linejoin:round;}</style>
 </defs>
 <g id="figure_1">
  <g id="patch_1">
   <path d="M 0 345.6 
L 460.8 345.6 
L 460.8 0 
L 0 0 
z
" style="fill:#ffffff;"/>
  </g>
  <g id="axes_1">
   <g id="patch_2">
    <path d="M 57.6 307.584 
L 414.72 307.584 
L 414.72 41.472 
L 57.6 41.472 
z
" style="fill:#ffffff;"/>
   </g>
   <g id="matplotlib.axis_1">
    <g id="xtick_1">
     <g id="line2d_1">
      <defs>
       <path d="M 0 0 
L 0 3.5 
" id="mfae5b333d9" style="stroke:#000000;stroke-width:0.8;"/>
      </defs>
      <g>
       <use style="stroke:#000000;stroke-width:0.8;" x="73.832727" xlink:href="#mfae5b333d9" y="307.584"/>
      </g>
     </g>
     <g id="text_1">
      <!-- 0 -->
      <g transform="translate(70.651477 322.182437)scale(0.1 -0.1)">
       <defs>
        <path d="M 2034 4250 
Q 1547 4250 1301 3770 
Q 1056 3291 1056 2328 
Q 1056 1369 1301 889 
Q 1547 409 2034 409 
Q 2525 409 2770 889 
Q 3016 1369 3016 2328 
Q 3016 3291 2770 3770 
Q 2525 4250 2034 4250 
z
M 2034 4750 
Q 2819 4750 3233 4129 
Q 3647 3509 3647 2328 
Q 3647 1150 3233 529 
Q 2819 -91 2034 -91 
Q 1250 -91 836 529 
Q 422 1150 422 2328 
Q 422 3509 836 4129 
Q 1250 4750 2034 4750 
z
" id="DejaVuSans-30" transform="scale(0.015625)"/>
       </defs>
       <use xlink:href="#DejaVuSans-30"/>
      </g>
     </g>
    </g>
    <g id="xtick_2">
     <g id="line2d_2">
      <g>
       <use style="stroke:#000000;stroke-width:0.8;" x="143.426413" xlink:href="#mfae5b333d9" y="307.584"/>
      </g>
     </g>
     <g id="text_2">
      <!-- 200 -->
      <g transform="translate(133.882663 322.182437)scale(0.1 -0.1)">
       <defs>
        <path d="M 1228 531 
L 3431 531 
L 3431 0 
L 469 0 
L 469 531 
Q 828 903 1448 1529 
Q 2069 2156 2228 2338 
Q 2531 2678 2651 2914 
Q 2772 3150 2772 3378 
Q 2772 3750 2511 3984 
Q 2250 4219 1831 4219 
Q 1534 4219 1204 4116 
Q 875 4013 500 3803 
L 500 4441 
Q 881 4594 1212 4672 
Q 1544 4750 1819 4750 
Q 2544 4750 2975 4387 
Q 3406 4025 3406 3419 
Q 3406 3131 3298 2873 
Q 3191 2616 2906 2266 
Q 2828 2175 2409 1742 
Q 1991 1309 1228 531 
z
" id="DejaVuSans-32" transform="scale(0.015625)"/>
       </defs>
       <use xlink:href="#DejaVuSans-32"/>
       <use x="63.623047" xlink:href="#DejaVuSans-30"/>
       <use x="127.246094" xlink:href="#DejaVuSans-30"/>
      </g>
     </g>
    </g>
    <g id="xtick_3">
     <g id="line2d_3">
      <g>
       <use style="stroke:#000000;stroke-width:0.8;" x="213.020099" xlink:href="#mfae5b333d9" y="307.584"/>
      </g>
     </g>
     <g id="text_3">
      <!-- 400 -->
      <g transform="translate(203.476349 322.182437)scale(0.1 -0.1)">
       <defs>
        <path d="M 2419 4116 
L 825 1625 
L 2419 1625 
L 2419 4116 
z
M 2253 4666 
L 3047 4666 
L 3047 1625 
L 3713 1625 
L 3713 1100 
L 3047 1100 
L 3047 0 
L 2419 0 
L 2419 1100 
L 313 1100 
L 313 1709 
L 2253 4666 
z
" id="DejaVuSans-34" transform="scale(0.015625)"/>
       </defs>
       <use xlink:href="#DejaVuSans-34"/>
       <use x="63.623047" xlink:href="#DejaVuSans-30"/>
       <use x="127.246094" xlink:href="#DejaVuSans-30"/>
      </g>
     </g>
    </g>
    <g id="xtick_4">
     <g id="line2d_4">
      <g>
       <use style="stroke:#000000;stroke-width:0.8;" x="282.613785" xlink:href="#mfae5b333d9" y="307.584"/>
      </g>
     </g>
     <g id="text_4">
      <!-- 600 -->
      <g transform="translate(273.070035 322.182437)scale(0.1 -0.1)">
       <defs>
        <path d="M 2113 2584 
Q 1688 2584 1439 2293 
Q 1191 2003 1191 1497 
Q 1191 994 1439 701 
Q 1688 409 2113 409 
Q 2538 409 2786 701 
Q 3034 994 3034 1497 
Q 3034 2003 2786 2293 
Q 2538 2584 2113 2584 
z
M 3366 4563 
L 3366 3988 
Q 3128 4100 2886 4159 
Q 2644 4219 2406 4219 
Q 1781 4219 1451 3797 
Q 1122 3375 1075 2522 
Q 1259 2794 1537 2939 
Q 1816 3084 2150 3084 
Q 2853 3084 3261 2657 
Q 3669 2231 3669 1497 
Q 3669 778 3244 343 
Q 2819 -91 2113 -91 
Q 1303 -91 875 529 
Q 447 1150 447 2328 
Q 447 3434 972 4092 
Q 1497 4750 2381 4750 
Q 2619 4750 2861 4703 
Q 3103 4656 3366 4563 
z
" id="DejaVuSans-36" transform="scale(0.015625)"/>
       </defs>
       <use xlink:href="#DejaVuSans-36"/>
       <use x="63.623047" xlink:href="#DejaVuSans-30"/>
       <use x="127.246094" xlink:href="#DejaVuSans-30"/>
      </g>
     </g>
    </g>
    <g id="xtick_5">
     <g id="line2d_5">
      <g>
       <use style="stroke:#000000;stroke-width:0.8;" x="352.207471" xlink:href="#mfae5b333d9" y="307.584"/>
      </g>
     </g>
     <g id="text_5">
      <!-- 800 -->
      <g transform="translate(342.663721 322.182437)scale(0.1 -0.1)">
       <defs>
        <path d="M 2034 2216 
Q 1584 2216 1326 1975 
Q 1069 1734 1069 1313 
Q 1069 891 1326 650 
Q 1584 409 2034 409 
Q 2484 409 2743 651 
Q 3003 894 3003 1313 
Q 3003 1734 2745 1975 
Q 2488 2216 2034 2216 
z
M 1403 2484 
Q 997 2584 770 2862 
Q 544 3141 544 3541 
Q 544 4100 942 4425 
Q 1341 4750 2034 4750 
Q 2731 4750 3128 4425 
Q 3525 4100 3525 3541 
Q 3525 3141 3298 2862 
Q 3072 2584 2669 2484 
Q 3125 2378 3379 2068 
Q 3634 1759 3634 1313 
Q 3634 634 3220 271 
Q 2806 -91 2034 -91 
Q 1263 -91 848 271 
Q 434 634 434 1313 
Q 434 1759 690 2068 
Q 947 2378 1403 2484 
z
M 1172 3481 
Q 1172 3119 1398 2916 
Q 1625 2713 2034 2713 
Q 2441 2713 2670 2916 
Q 2900 3119 2900 3481 
Q 2900 3844 2670 4047 
Q 2441 4250 2034 4250 
Q 1625 4250 1398 4047 
Q 1172 3844 1172 3481 
z
" id="DejaVuSans-38" transform="scale(0.015625)"/>
       </defs>
       <use xlink:href="#DejaVuSans-38"/>
       <use x="63.623047" xlink:href="#DejaVuSans-30"/>
       <use x="127.246094" xlink:href="#DejaVuSans-30"/>
      </g>
     </g>
    </g>
   </g>
   <g id="matplotlib.axis_2">
    <g id="ytick_1">
     <g id="line2d_6">
      <defs>
       <path d="M 0 0 
L -3.5 0 
" id="m4504533a59" style="stroke:#000000;stroke-width:0.8;"/>
      </defs>
      <g>
       <use style="stroke:#000000;stroke-width:0.8;" x="57.6" xlink:href="#m4504533a59" y="261.534316"/>
      </g>
     </g>
     <g id="text_6">
      <!-- 0 -->
      <g transform="translate(44.2375 265.333535)scale(0.1 -0.1)">
       <use xlink:href="#DejaVuSans-30"/>
      </g>
     </g>
    </g>
    <g id="ytick_2">
     <g id="line2d_7">
      <g>
       <use style="stroke:#000000;stroke-width:0.8;" x="57.6" xlink:href="#m4504533a59" y="208.481684"/>
      </g>
     </g>
     <g id="text_7">
      <!-- 5 -->
      <g transform="translate(44.2375 212.280903)scale(0.1 -0.1)">
       <defs>
        <path d="M 691 4666 
L 3169 4666 
L 3169 4134 
L 1269 4134 
L 1269 2991 
Q 1406 3038 1543 3061 
Q 1681 3084 1819 3084 
Q 2600 3084 3056 2656 
Q 3513 2228 3513 1497 
Q 3513 744 3044 326 
Q 2575 -91 1722 -91 
Q 1428 -91 1123 -41 
Q 819 9 494 109 
L 494 744 
Q 775 591 1075 516 
Q 1375 441 1709 441 
Q 2250 441 2565 725 
Q 2881 1009 2881 1497 
Q 2881 1984 2565 2268 
Q 2250 2553 1709 2553 
Q 1456 2553 1204 2497 
Q 953 2441 691 2322 
L 691 4666 
z
" id="DejaVuSans-35" transform="scale(0.015625)"/>
       </defs>
       <use xlink:href="#DejaVuSans-35"/>
      </g>
     </g>
    </g>
    <g id="ytick_3">
     <g id="line2d_8">
      <g>
       <use style="stroke:#000000;stroke-width:0.8;" x="57.6" xlink:href="#m4504533a59" y="155.429053"/>
      </g>
     </g>
     <g id="text_8">
      <!-- 10 -->
      <g transform="translate(37.875 159.228271)scale(0.1 -0.1)">
       <defs>
        <path d="M 794 531 
L 1825 531 
L 1825 4091 
L 703 3866 
L 703 4441 
L 1819 4666 
L 2450 4666 
L 2450 531 
L 3481 531 
L 3481 0 
L 794 0 
L 794 531 
z
" id="DejaVuSans-31" transform="scale(0.015625)"/>
       </defs>
       <use xlink:href="#DejaVuSans-31"/>
       <use x="63.623047" xlink:href="#DejaVuSans-30"/>
      </g>
     </g>
    </g>
    <g id="ytick_4">
     <g id="line2d_9">
      <g>
       <use style="stroke:#000000;stroke-width:0.8;" x="57.6" xlink:href="#m4504533a59" y="102.376421"/>
      </g>
     </g>
     <g id="text_9">
      <!-- 15 -->
      <g transform="translate(37.875 106.17564)scale(0.1 -0.1)">
       <use xlink:href="#DejaVuSans-31"/>
       <use x="63.623047" xlink:href="#DejaVuSans-35"/>
      </g>
     </g>
    </g>
    <g id="ytick_5">
     <g id="line2d_10">
      <g>
       <use style="stroke:#000000;stroke-width:0.8;" x="57.6" xlink:href="#m4504533a59" y="49.323789"/>
      </g>
     </g>
     <g id="text_10">
      <!-- 20 -->
      <g transform="translate(37.875 53.123008)scale(0.1 -0.1)">
       <use xlink:href="#DejaVuSans-32"/>
       <use x="63.623047" xlink:href="#DejaVuSans-30"/>
      </g>
     </g>
    </g>
   </g>
   <g id="line2d_11">
    <path clip-path="url(#pc02198b72c)" d="M 73.832727 194.688 
L 74.180696 194.688 
L 74.528664 199.993263 
L 74.876633 188.321684 
L 75.224601 184.077474 
L 75.572569 187.260632 
L 75.920538 185.138526 
L 76.268506 194.688 
L 76.616475 186.199579 
L 76.964443 187.260632 
L 77.312412 194.688 
L 77.66038 185.138526 
L 78.008348 192.565895 
L 78.356317 193.626947 
L 78.704285 196.810105 
L 79.400222 196.810105 
L 79.748191 204.237474 
L 80.444127 202.115368 
L 80.792096 196.810105 
L 81.140064 199.993263 
L 81.488033 199.993263 
L 81.836001 198.932211 
L 82.18397 186.199579 
L 82.531938 183.016421 
L 82.879906 188.321684 
L 83.227875 197.871158 
L 83.575843 203.176421 
L 83.923812 204.237474 
L 84.27178 197.871158 
L 84.619749 196.810105 
L 84.967717 206.359579 
L 85.315685 199.993263 
L 85.663654 199.993263 
L 86.011622 207.420632 
L 86.359591 202.115368 
L 86.707559 199.993263 
L 87.055528 191.504842 
L 87.403496 189.382737 
L 87.751464 188.321684 
L 88.099433 186.199579 
L 88.447401 185.138526 
L 88.79537 176.650105 
L 89.143338 177.711158 
L 89.491307 175.589053 
L 90.535212 150.123789 
L 91.231149 138.452211 
L 91.579117 139.513263 
L 91.927086 136.330105 
L 92.623023 136.330105 
L 92.970991 135.269053 
L 93.318959 132.085895 
L 93.666928 131.024842 
L 94.014896 127.841684 
L 94.362865 126.780632 
L 94.710833 126.780632 
L 95.058802 125.719579 
L 95.40677 122.536421 
L 95.754738 123.597474 
L 96.102707 122.536421 
L 96.450675 120.414316 
L 96.798644 119.353263 
L 97.146612 117.231158 
L 97.494581 114.048 
L 97.842549 112.986947 
L 98.538486 115.109053 
L 98.886454 112.986947 
L 99.582391 110.864842 
L 99.93036 110.864842 
L 100.626296 106.620632 
L 100.974265 106.620632 
L 101.322233 104.498526 
L 101.670202 104.498526 
L 102.01817 100.254316 
L 102.366139 101.315368 
L 102.714107 100.254316 
L 103.062075 103.437474 
L 103.410044 100.254316 
L 103.758012 96.010105 
L 104.105981 98.132211 
L 104.453949 99.193263 
L 104.801918 101.315368 
L 105.149886 101.315368 
L 105.845823 105.559579 
L 106.193791 104.498526 
L 106.54176 102.376421 
L 106.889728 106.620632 
L 107.237697 106.620632 
L 107.585665 108.742737 
L 107.933633 112.986947 
L 108.62957 124.658526 
L 109.673476 137.391158 
L 110.021444 169.222737 
L 110.369412 169.222737 
L 110.717381 176.650105 
L 111.065349 178.772211 
L 111.413318 183.016421 
L 112.109255 178.772211 
L 112.457223 180.894316 
L 112.805191 186.199579 
L 113.15316 186.199579 
L 113.501128 184.077474 
L 113.849097 184.077474 
L 114.197065 187.260632 
L 114.545034 186.199579 
L 114.893002 187.260632 
L 115.936907 174.528 
L 116.284876 174.528 
L 116.632844 186.199579 
L 116.980813 186.199579 
L 117.328781 185.138526 
L 117.676749 177.711158 
L 118.024718 177.711158 
L 118.372686 183.016421 
L 118.720655 178.772211 
L 119.068623 177.711158 
L 119.416592 185.138526 
L 119.76456 188.321684 
L 120.112529 187.260632 
L 120.460497 189.382737 
L 120.808465 194.688 
L 121.504402 190.443789 
L 122.200339 194.688 
L 122.548308 195.749053 
L 122.896276 192.565895 
L 123.244244 190.443789 
L 123.592213 194.688 
L 124.28815 196.810105 
L 124.636118 193.626947 
L 124.984087 195.749053 
L 125.680023 184.077474 
L 126.37596 188.321684 
L 126.723929 188.321684 
L 127.071897 189.382737 
L 127.419866 191.504842 
L 127.767834 190.443789 
L 128.115802 191.504842 
L 128.463771 190.443789 
L 128.811739 191.504842 
L 129.159708 197.871158 
L 129.507676 196.810105 
L 129.855645 201.054316 
L 130.551581 198.932211 
L 130.89955 198.932211 
L 131.247518 196.810105 
L 131.595487 188.321684 
L 131.943455 203.176421 
L 132.291424 196.810105 
L 132.639392 197.871158 
L 132.98736 187.260632 
L 133.335329 192.565895 
L 133.683297 191.504842 
L 134.031266 191.504842 
L 134.379234 179.833263 
L 134.727203 186.199579 
L 135.075171 175.589053 
L 135.423139 173.466947 
L 135.771108 167.100632 
L 136.119076 167.100632 
L 136.467045 174.528 
L 136.815013 168.161684 
L 137.51095 172.405895 
L 137.858918 164.978526 
L 138.206887 162.856421 
L 138.554855 159.673263 
L 138.902824 180.894316 
L 139.250792 177.711158 
L 139.598761 176.650105 
L 139.946729 174.528 
L 140.294697 175.589053 
L 140.642666 171.344842 
L 141.338603 158.612211 
L 141.686571 162.856421 
L 142.03454 156.490105 
L 142.382508 154.368 
L 143.078445 152.245895 
L 143.774382 144.818526 
L 144.12235 145.879579 
L 144.470319 143.757474 
L 144.818287 142.696421 
L 145.166255 143.757474 
L 145.514224 141.635368 
L 145.862192 140.574316 
L 146.210161 136.330105 
L 146.906098 136.330105 
L 147.254066 139.513263 
L 147.602034 135.269053 
L 147.950003 135.269053 
L 148.64594 133.146947 
L 148.993908 131.024842 
L 149.689845 138.452211 
L 150.73375 141.635368 
L 151.081719 139.513263 
L 151.429687 138.452211 
L 151.777656 139.513263 
L 152.473593 139.513263 
L 152.821561 141.635368 
L 154.213435 145.879579 
L 154.561403 148.001684 
L 154.909372 149.062737 
L 155.25734 151.184842 
L 155.605308 151.184842 
L 155.953277 153.306947 
L 156.301245 154.368 
L 156.649214 154.368 
L 156.997182 156.490105 
L 157.345151 157.551158 
L 157.693119 159.673263 
L 158.041087 159.673263 
L 158.389056 158.612211 
L 158.737024 159.673263 
L 159.084993 157.551158 
L 159.432961 160.734316 
L 159.78093 159.673263 
L 160.476866 166.039579 
L 160.824835 163.917474 
L 161.172803 164.978526 
L 161.520772 163.917474 
L 161.86874 161.795368 
L 162.216709 163.917474 
L 162.564677 162.856421 
L 162.912645 180.894316 
L 163.260614 179.833263 
L 164.304519 183.016421 
L 164.652488 178.772211 
L 165.000456 190.443789 
L 165.348424 196.810105 
L 165.696393 191.504842 
L 166.044361 198.932211 
L 166.39233 198.932211 
L 167.088267 209.542737 
L 167.436235 202.115368 
L 167.784203 210.603789 
L 168.132172 214.848 
L 168.48014 215.909053 
L 168.828109 211.664842 
L 169.176077 215.909053 
L 169.524046 216.970105 
L 169.872014 219.092211 
L 170.219982 218.031158 
L 170.567951 215.909053 
L 170.915919 218.031158 
L 171.263888 225.458526 
L 171.611856 225.458526 
L 171.959825 219.092211 
L 172.307793 225.458526 
L 172.655761 229.702737 
L 173.00373 223.336421 
L 173.351698 222.275368 
L 173.699667 218.031158 
L 174.047635 218.031158 
L 174.395604 219.092211 
L 174.743572 211.664842 
L 175.439509 191.504842 
L 175.787477 201.054316 
L 176.135446 192.565895 
L 176.483414 194.688 
L 177.179351 204.237474 
L 177.527319 222.275368 
L 177.875288 207.420632 
L 178.223256 205.298526 
L 178.571225 218.031158 
L 178.919193 215.909053 
L 179.267162 205.298526 
L 179.61513 212.725895 
L 179.963099 204.237474 
L 180.311067 189.382737 
L 180.659035 185.138526 
L 182.050909 176.650105 
L 183.442783 163.917474 
L 183.790751 159.673263 
L 184.13872 162.856421 
L 184.486688 167.100632 
L 184.834657 154.368 
L 185.182625 154.368 
L 185.530593 151.184842 
L 186.22653 142.696421 
L 186.574499 140.574316 
L 186.922467 141.635368 
L 187.270436 141.635368 
L 187.618404 140.574316 
L 187.966372 137.391158 
L 188.314341 133.146947 
L 188.662309 137.391158 
L 189.010278 134.208 
L 189.358246 136.330105 
L 189.706215 135.269053 
L 190.054183 128.902737 
L 190.402151 128.902737 
L 190.75012 132.085895 
L 191.098088 129.963789 
L 191.446057 128.902737 
L 191.794025 126.780632 
L 192.141994 125.719579 
L 192.489962 129.963789 
L 192.83793 129.963789 
L 193.185899 127.841684 
L 193.533867 126.780632 
L 193.881836 122.536421 
L 194.577773 122.536421 
L 194.925741 120.414316 
L 195.273709 117.231158 
L 195.621678 118.292211 
L 195.969646 121.475368 
L 196.317615 122.536421 
L 196.665583 122.536421 
L 197.013552 120.414316 
L 197.36152 122.536421 
L 197.709488 121.475368 
L 198.753394 115.109053 
L 199.101362 115.109053 
L 199.449331 114.048 
L 199.797299 116.170105 
L 200.145267 115.109053 
L 200.493236 116.170105 
L 200.841204 116.170105 
L 201.189173 114.048 
L 201.537141 114.048 
L 201.88511 117.231158 
L 202.233078 119.353263 
L 202.929015 127.841684 
L 203.276983 127.841684 
L 203.624952 126.780632 
L 203.97292 129.963789 
L 204.668857 166.039579 
L 205.016825 170.283789 
L 205.364794 154.368 
L 205.712762 155.429053 
L 206.060731 159.673263 
L 206.408699 169.222737 
L 206.756668 155.429053 
L 207.104636 154.368 
L 207.800573 161.795368 
L 208.148541 162.856421 
L 208.49651 166.039579 
L 208.844478 172.405895 
L 209.192447 167.100632 
L 209.888384 164.978526 
L 210.236352 162.856421 
L 210.58432 168.161684 
L 210.932289 161.795368 
L 211.628226 163.917474 
L 211.976194 169.222737 
L 212.324163 169.222737 
L 212.672131 166.039579 
L 213.020099 168.161684 
L 213.716036 174.528 
L 214.064005 173.466947 
L 214.411973 170.283789 
L 215.10791 170.283789 
L 215.455878 169.222737 
L 215.803847 171.344842 
L 216.151815 172.405895 
L 216.499784 176.650105 
L 216.847752 177.711158 
L 217.195721 180.894316 
L 217.543689 178.772211 
L 217.891657 181.955368 
L 218.239626 174.528 
L 218.587594 173.466947 
L 218.935563 170.283789 
L 219.283531 171.344842 
L 219.6315 170.283789 
L 219.979468 172.405895 
L 220.327436 172.405895 
L 220.675405 178.772211 
L 221.023373 174.528 
L 221.371342 174.528 
L 221.71931 173.466947 
L 222.067279 174.528 
L 222.415247 179.833263 
L 222.763215 174.528 
L 223.111184 175.589053 
L 224.503058 175.589053 
L 225.546963 178.772211 
L 225.894931 177.711158 
L 226.2429 177.711158 
L 226.590868 180.894316 
L 226.938837 193.626947 
L 227.286805 193.626947 
L 227.634773 179.833263 
L 228.678679 173.466947 
L 229.026647 172.405895 
L 229.374616 170.283789 
L 229.722584 166.039579 
L 230.070552 163.917474 
L 230.418521 160.734316 
L 231.114458 170.283789 
L 231.462426 178.772211 
L 232.8543 150.123789 
L 233.202268 152.245895 
L 233.550237 172.405895 
L 233.898205 173.466947 
L 234.246174 160.734316 
L 234.594142 155.429053 
L 234.94211 154.368 
L 235.986016 139.513263 
L 236.333984 135.269053 
L 236.681953 136.330105 
L 237.029921 129.963789 
L 237.37789 126.780632 
L 237.725858 135.269053 
L 238.073826 139.513263 
L 238.421795 140.574316 
L 238.769763 137.391158 
L 239.117732 136.330105 
L 239.4657 137.391158 
L 240.161637 124.658526 
L 240.509605 122.536421 
L 240.857574 129.963789 
L 241.205542 132.085895 
L 241.901479 148.001684 
L 242.597416 145.879579 
L 242.945384 151.184842 
L 243.293353 154.368 
L 243.641321 153.306947 
L 245.033195 140.574316 
L 245.381163 139.513263 
L 245.729132 139.513263 
L 246.425069 149.062737 
L 246.773037 152.245895 
L 247.468974 152.245895 
L 248.164911 154.368 
L 248.860848 154.368 
L 249.208816 155.429053 
L 249.556785 166.039579 
L 249.904753 161.795368 
L 250.252721 163.917474 
L 250.60069 169.222737 
L 250.948658 167.100632 
L 251.296627 169.222737 
L 251.644595 172.405895 
L 251.992564 173.466947 
L 252.340532 171.344842 
L 252.6885 177.711158 
L 253.036469 191.504842 
L 253.384437 178.772211 
L 253.732406 177.711158 
L 254.080374 178.772211 
L 254.428343 178.772211 
L 254.776311 179.833263 
L 255.124279 179.833263 
L 255.472248 181.955368 
L 256.168185 196.810105 
L 256.516153 191.504842 
L 256.864122 196.810105 
L 257.21209 194.688 
L 257.560058 189.382737 
L 257.908027 196.810105 
L 258.603964 205.298526 
L 258.951932 207.420632 
L 259.299901 207.420632 
L 259.647869 204.237474 
L 259.995837 205.298526 
L 260.343806 198.932211 
L 260.691774 211.664842 
L 261.387711 194.688 
L 261.73568 211.664842 
L 262.083648 202.115368 
L 262.431616 202.115368 
L 262.779585 205.298526 
L 263.127553 205.298526 
L 263.475522 203.176421 
L 263.82349 204.237474 
L 264.171459 212.725895 
L 264.519427 215.909053 
L 264.867395 202.115368 
L 265.215364 211.664842 
L 265.563332 202.115368 
L 265.911301 204.237474 
L 266.607238 206.359579 
L 266.955206 222.275368 
L 267.303175 229.702737 
L 267.651143 226.519579 
L 267.999111 228.641684 
L 268.695048 220.153263 
L 269.043017 225.458526 
L 269.390985 226.519579 
L 269.738954 222.275368 
L 270.43489 228.641684 
L 271.130827 228.641684 
L 271.478796 223.336421 
L 271.826764 207.420632 
L 272.174733 209.542737 
L 272.522701 221.214316 
L 272.870669 226.519579 
L 273.218638 212.725895 
L 273.566606 226.519579 
L 273.914575 228.641684 
L 274.95848 225.458526 
L 275.306448 221.214316 
L 275.654417 219.092211 
L 276.002385 206.359579 
L 276.350354 205.298526 
L 276.698322 221.214316 
L 277.046291 227.580632 
L 277.394259 223.336421 
L 277.742227 221.214316 
L 278.090196 226.519579 
L 278.438164 221.214316 
L 278.786133 221.214316 
L 279.134101 225.458526 
L 279.48207 218.031158 
L 279.830038 207.420632 
L 280.178006 205.298526 
L 280.525975 202.115368 
L 280.873943 199.993263 
L 281.221912 211.664842 
L 281.56988 214.848 
L 281.917849 215.909053 
L 282.265817 212.725895 
L 282.613785 218.031158 
L 282.961754 212.725895 
L 283.309722 215.909053 
L 283.657691 216.970105 
L 284.005659 210.603789 
L 284.353628 211.664842 
L 284.701596 211.664842 
L 285.049564 216.970105 
L 285.397533 213.786947 
L 285.745501 211.664842 
L 286.09347 206.359579 
L 286.441438 205.298526 
L 286.789407 206.359579 
L 287.137375 206.359579 
L 287.485343 205.298526 
L 287.833312 196.810105 
L 288.18128 196.810105 
L 288.529249 202.115368 
L 289.225186 192.565895 
L 289.573154 194.688 
L 289.921122 194.688 
L 290.269091 191.504842 
L 290.617059 189.382737 
L 290.965028 188.321684 
L 291.312996 178.772211 
L 291.660965 180.894316 
L 292.008933 173.466947 
L 292.70487 190.443789 
L 293.400807 174.528 
L 293.748775 155.429053 
L 294.096744 171.344842 
L 294.444712 168.161684 
L 294.792681 154.368 
L 295.140649 164.978526 
L 295.488617 163.917474 
L 295.836586 161.795368 
L 296.184554 158.612211 
L 296.532523 163.917474 
L 296.880491 171.344842 
L 297.22846 174.528 
L 297.576428 170.283789 
L 297.924396 173.466947 
L 298.272365 167.100632 
L 298.620333 170.283789 
L 298.968302 170.283789 
L 299.31627 169.222737 
L 299.664239 173.466947 
L 300.012207 181.955368 
L 300.360175 178.772211 
L 300.708144 187.260632 
L 301.056112 187.260632 
L 301.404081 181.955368 
L 301.752049 197.871158 
L 302.100018 198.932211 
L 302.795954 186.199579 
L 303.143923 195.749053 
L 303.491891 186.199579 
L 303.83986 194.688 
L 304.187828 196.810105 
L 304.535797 205.298526 
L 304.883765 203.176421 
L 305.231733 198.932211 
L 305.579702 207.420632 
L 305.92767 207.420632 
L 306.275639 209.542737 
L 306.623607 206.359579 
L 306.971576 204.237474 
L 307.319544 198.932211 
L 307.667512 202.115368 
L 308.015481 190.443789 
L 308.363449 190.443789 
L 308.711418 205.298526 
L 309.059386 203.176421 
L 309.407355 208.481684 
L 309.755323 211.664842 
L 310.103291 202.115368 
L 310.45126 201.054316 
L 310.799228 195.749053 
L 311.147197 203.176421 
L 311.495165 203.176421 
L 311.843134 202.115368 
L 312.53907 195.749053 
L 312.887039 199.993263 
L 313.235007 201.054316 
L 313.582976 204.237474 
L 313.930944 206.359579 
L 314.278913 209.542737 
L 314.626881 209.542737 
L 314.974849 211.664842 
L 316.018755 199.993263 
L 316.714692 219.092211 
L 317.06266 219.092211 
L 317.758597 223.336421 
L 318.106565 223.336421 
L 318.454534 219.092211 
L 318.802502 225.458526 
L 319.150471 225.458526 
L 319.498439 220.153263 
L 319.846407 226.519579 
L 320.194376 227.580632 
L 320.542344 222.275368 
L 320.890313 223.336421 
L 321.238281 222.275368 
L 321.58625 220.153263 
L 321.934218 215.909053 
L 322.282186 220.153263 
L 322.630155 218.031158 
L 323.326092 229.702737 
L 323.67406 230.763789 
L 324.022029 222.275368 
L 324.369997 220.153263 
L 324.717966 227.580632 
L 325.065934 226.519579 
L 325.413902 229.702737 
L 325.761871 225.458526 
L 326.457808 225.458526 
L 326.805776 221.214316 
L 327.153745 220.153263 
L 327.501713 214.848 
L 327.849681 220.153263 
L 328.545618 208.481684 
L 328.893587 211.664842 
L 329.241555 204.237474 
L 329.589524 207.420632 
L 329.937492 206.359579 
L 330.28546 197.871158 
L 331.329366 201.054316 
L 332.025303 205.298526 
L 332.373271 195.749053 
L 332.721239 189.382737 
L 333.069208 189.382737 
L 333.417176 191.504842 
L 333.765145 179.833263 
L 334.113113 177.711158 
L 334.461082 179.833263 
L 334.80905 186.199579 
L 335.157018 181.955368 
L 335.504987 172.405895 
L 335.852955 172.405895 
L 336.200924 155.429053 
L 336.548892 173.466947 
L 336.896861 173.466947 
L 337.244829 176.650105 
L 337.592797 167.100632 
L 337.940766 164.978526 
L 338.288734 170.283789 
L 338.636703 167.100632 
L 338.984671 154.368 
L 339.33264 168.161684 
L 339.680608 155.429053 
L 340.028576 155.429053 
L 340.376545 170.283789 
L 340.724513 168.161684 
L 341.072482 179.833263 
L 341.42045 179.833263 
L 341.768419 173.466947 
L 342.116387 169.222737 
L 342.464355 173.466947 
L 342.812324 185.138526 
L 343.160292 187.260632 
L 343.508261 188.321684 
L 343.856229 236.069053 
L 344.204198 239.252211 
L 344.552166 241.374316 
L 344.900134 246.679579 
L 345.248103 248.801684 
L 345.596071 246.679579 
L 345.94404 242.435368 
L 346.292008 246.679579 
L 346.639977 245.618526 
L 346.987945 249.862737 
L 347.335913 248.801684 
L 347.683882 254.106947 
L 348.379819 260.473263 
L 348.727787 261.534316 
L 349.075756 263.656421 
L 349.423724 262.595368 
L 349.771692 270.022737 
L 350.119661 271.083789 
L 350.467629 267.900632 
L 350.815598 272.144842 
L 351.163566 274.266947 
L 351.511535 275.328 
L 351.859503 273.205895 
L 352.55544 275.328 
L 352.903408 272.144842 
L 353.251377 272.144842 
L 353.599345 274.266947 
L 354.295282 284.877474 
L 354.643251 283.816421 
L 354.991219 281.694316 
L 355.339187 278.511158 
L 355.687156 278.511158 
L 356.035124 282.755368 
L 356.383093 280.633263 
L 356.731061 282.755368 
L 357.07903 279.572211 
L 357.426998 279.572211 
L 357.774966 278.511158 
L 358.122935 279.572211 
L 358.470903 283.816421 
L 358.818872 285.938526 
L 359.16684 286.999579 
L 359.514809 275.328 
L 359.862777 280.633263 
L 360.210745 289.121684 
L 360.558714 284.877474 
L 360.906682 289.121684 
L 361.254651 288.060632 
L 361.950588 277.450105 
L 362.298556 283.816421 
L 362.646524 285.938526 
L 362.994493 291.243789 
L 363.342461 282.755368 
L 364.038398 292.304842 
L 364.386367 292.304842 
L 364.734335 291.243789 
L 365.082303 295.488 
L 365.430272 294.426947 
L 365.77824 290.182737 
L 366.126209 290.182737 
L 366.474177 288.060632 
L 366.822146 281.694316 
L 367.170114 280.633263 
L 367.518082 289.121684 
L 367.866051 281.694316 
L 368.214019 278.511158 
L 368.561988 273.205895 
L 369.257925 242.435368 
L 369.605893 216.970105 
L 370.30183 210.603789 
L 370.997767 198.932211 
L 371.345735 207.420632 
L 371.693704 192.565895 
L 372.041672 190.443789 
L 372.38964 196.810105 
L 372.737609 184.077474 
L 373.085577 186.199579 
L 373.433546 189.382737 
L 373.781514 196.810105 
L 374.129483 197.871158 
L 374.825419 193.626947 
L 375.173388 190.443789 
L 375.521356 188.321684 
L 376.565262 188.321684 
L 376.91323 185.138526 
L 377.261198 176.650105 
L 377.609167 139.513263 
L 377.957135 135.269053 
L 378.305104 133.146947 
L 378.653072 133.146947 
L 379.001041 134.208 
L 380.392914 125.719579 
L 380.740883 124.658526 
L 381.088851 122.536421 
L 381.43682 123.597474 
L 381.784788 122.536421 
L 382.132757 120.414316 
L 382.480725 119.353263 
L 382.828693 120.414316 
L 383.176662 117.231158 
L 383.872599 119.353263 
L 384.220567 118.292211 
L 384.568536 118.292211 
L 384.916504 119.353263 
L 385.264472 119.353263 
L 385.612441 120.414316 
L 385.960409 119.353263 
L 387.004315 125.719579 
L 387.352283 128.902737 
L 387.700251 131.024842 
L 388.04822 152.245895 
L 389.092125 187.260632 
L 390.13603 204.237474 
L 390.831967 206.359579 
L 391.179936 209.542737 
L 391.527904 210.603789 
L 391.875873 215.909053 
L 392.571809 211.664842 
L 392.919778 220.153263 
L 393.267746 216.970105 
L 394.311652 228.641684 
L 394.65962 227.580632 
L 395.007588 229.702737 
L 395.355557 230.763789 
L 395.703525 232.885895 
L 396.051494 236.069053 
L 396.399462 221.214316 
L 396.747431 220.153263 
L 397.095399 216.970105 
L 397.791336 226.519579 
L 398.139304 230.763789 
L 398.487273 230.763789 
L 398.487273 230.763789 
" style="fill:none;stroke:#1f77b4;stroke-linecap:square;stroke-width:1.5;"/>
   </g>
   <g id="line2d_12">
    <path clip-path="url(#pc02198b72c)" d="M 73.832727 122.536421 
L 74.180696 127.841684 
L 74.528664 128.902737 
L 74.876633 123.597474 
L 75.224601 125.719579 
L 75.572569 132.085895 
L 75.920538 129.963789 
L 76.268506 131.024842 
L 76.616475 126.780632 
L 76.964443 129.963789 
L 77.312412 128.902737 
L 77.66038 132.085895 
L 78.008348 138.452211 
L 78.356317 136.330105 
L 78.704285 135.269053 
L 79.052254 138.452211 
L 79.400222 133.146947 
L 79.748191 136.330105 
L 80.096159 138.452211 
L 80.444127 139.513263 
L 80.792096 137.391158 
L 81.140064 138.452211 
L 81.488033 140.574316 
L 81.836001 140.574316 
L 82.18397 138.452211 
L 82.531938 143.757474 
L 82.879906 141.635368 
L 83.227875 144.818526 
L 83.575843 143.757474 
L 83.923812 144.818526 
L 84.27178 146.940632 
L 84.619749 144.818526 
L 84.967717 146.940632 
L 85.663654 146.940632 
L 86.707559 143.757474 
L 87.055528 141.635368 
L 87.751464 143.757474 
L 88.099433 141.635368 
L 88.447401 141.635368 
L 88.79537 139.513263 
L 89.143338 139.513263 
L 89.491307 138.452211 
L 89.839275 139.513263 
L 90.535212 133.146947 
L 91.231149 128.902737 
L 92.275054 107.681684 
L 92.623023 104.498526 
L 92.970991 106.620632 
L 93.318959 100.254316 
L 93.666928 99.193263 
L 94.014896 90.704842 
L 94.362865 92.826947 
L 94.710833 89.643789 
L 95.058802 91.765895 
L 95.754738 82.216421 
L 96.102707 84.338526 
L 96.450675 74.789053 
L 96.798644 71.605895 
L 97.146612 70.544842 
L 97.494581 71.605895 
L 97.842549 73.728 
L 98.190517 70.544842 
L 98.538486 62.056421 
L 99.234423 71.605895 
L 99.582391 60.995368 
L 99.93036 55.690105 
L 100.278328 72.666947 
L 100.626296 57.812211 
L 100.974265 57.812211 
L 101.322233 65.239579 
L 101.670202 53.568 
L 102.01817 64.178526 
L 102.366139 68.422737 
L 102.714107 63.117474 
L 103.062075 59.934316 
L 103.758012 66.300632 
L 104.105981 64.178526 
L 104.453949 64.178526 
L 104.801918 66.300632 
L 105.149886 69.483789 
L 105.497854 66.300632 
L 105.845823 70.544842 
L 106.193791 76.911158 
L 107.585665 93.888 
L 107.933633 100.254316 
L 108.281602 98.132211 
L 108.62957 102.376421 
L 108.977539 108.742737 
L 109.325507 110.864842 
L 109.673476 114.048 
L 110.021444 129.963789 
L 110.369412 134.208 
L 111.065349 134.208 
L 111.413318 135.269053 
L 111.761286 137.391158 
L 112.109255 138.452211 
L 112.457223 135.269053 
L 112.805191 140.574316 
L 113.501128 140.574316 
L 113.849097 142.696421 
L 114.545034 144.818526 
L 115.24097 144.818526 
L 115.588939 145.879579 
L 116.284876 145.879579 
L 116.632844 146.940632 
L 116.980813 144.818526 
L 117.328781 146.940632 
L 117.676749 150.123789 
L 118.372686 150.123789 
L 118.720655 146.940632 
L 119.068623 150.123789 
L 119.416592 150.123789 
L 119.76456 149.062737 
L 120.112529 151.184842 
L 120.808465 151.184842 
L 121.156434 150.123789 
L 121.504402 151.184842 
L 122.548308 151.184842 
L 123.244244 153.306947 
L 123.592213 153.306947 
L 123.940181 150.123789 
L 124.28815 152.245895 
L 124.636118 151.184842 
L 124.984087 153.306947 
L 125.332055 154.368 
L 125.680023 153.306947 
L 126.027992 154.368 
L 126.37596 172.405895 
L 126.723929 167.100632 
L 127.071897 155.429053 
L 127.419866 155.429053 
L 127.767834 154.368 
L 128.115802 155.429053 
L 128.463771 155.429053 
L 128.811739 154.368 
L 129.159708 155.429053 
L 129.507676 166.039579 
L 129.855645 155.429053 
L 130.203613 152.245895 
L 130.551581 164.978526 
L 130.89955 162.856421 
L 131.247518 154.368 
L 131.595487 167.100632 
L 131.943455 154.368 
L 132.291424 155.429053 
L 132.639392 152.245895 
L 132.98736 153.306947 
L 133.335329 153.306947 
L 134.031266 146.940632 
L 134.379234 145.879579 
L 134.727203 146.940632 
L 135.075171 146.940632 
L 135.423139 144.818526 
L 135.771108 145.879579 
L 136.467045 143.757474 
L 136.815013 138.452211 
L 137.162982 139.513263 
L 137.51095 136.330105 
L 137.858918 135.269053 
L 138.206887 126.780632 
L 138.554855 129.963789 
L 138.902824 127.841684 
L 139.250792 127.841684 
L 139.598761 121.475368 
L 139.946729 119.353263 
L 140.294697 115.109053 
L 140.642666 117.231158 
L 140.990634 114.048 
L 141.338603 118.292211 
L 141.686571 107.681684 
L 142.382508 111.925895 
L 142.730476 105.559579 
L 143.078445 105.559579 
L 143.426413 93.888 
L 143.774382 99.193263 
L 144.12235 99.193263 
L 144.470319 96.010105 
L 144.818287 91.765895 
L 145.166255 89.643789 
L 145.514224 81.155368 
L 146.210161 93.888 
L 146.558129 82.216421 
L 146.906098 85.399579 
L 147.254066 81.155368 
L 147.602034 87.521684 
L 147.950003 85.399579 
L 148.297971 72.666947 
L 148.64594 75.850105 
L 148.993908 87.521684 
L 149.341877 79.033263 
L 149.689845 80.094316 
L 150.037814 83.277474 
L 150.385782 81.155368 
L 150.73375 84.338526 
L 151.081719 75.850105 
L 151.429687 84.338526 
L 151.777656 82.216421 
L 152.125624 84.338526 
L 152.473593 82.216421 
L 152.821561 82.216421 
L 153.169529 80.094316 
L 153.517498 83.277474 
L 153.865466 85.399579 
L 154.213435 83.277474 
L 154.561403 86.460632 
L 154.909372 86.460632 
L 155.25734 87.521684 
L 155.953277 91.765895 
L 156.649214 89.643789 
L 156.997182 90.704842 
L 157.345151 93.888 
L 157.693119 90.704842 
L 158.041087 89.643789 
L 158.389056 90.704842 
L 158.737024 100.254316 
L 159.084993 100.254316 
L 159.432961 102.376421 
L 159.78093 101.315368 
L 160.128898 102.376421 
L 160.476866 102.376421 
L 160.824835 103.437474 
L 161.172803 105.559579 
L 161.520772 106.620632 
L 161.86874 106.620632 
L 162.216709 104.498526 
L 162.564677 105.559579 
L 162.912645 108.742737 
L 163.260614 109.803789 
L 163.956551 109.803789 
L 164.304519 114.048 
L 164.652488 116.170105 
L 165.000456 120.414316 
L 165.348424 122.536421 
L 165.696393 125.719579 
L 166.044361 126.780632 
L 166.740298 126.780632 
L 167.088267 125.719579 
L 167.784203 129.963789 
L 168.132172 127.841684 
L 168.48014 126.780632 
L 168.828109 131.024842 
L 169.524046 131.024842 
L 169.872014 132.085895 
L 170.219982 132.085895 
L 170.567951 136.330105 
L 170.915919 133.146947 
L 171.263888 128.902737 
L 171.959825 131.024842 
L 172.307793 133.146947 
L 172.655761 132.085895 
L 173.00373 133.146947 
L 173.351698 129.963789 
L 173.699667 135.269053 
L 174.047635 132.085895 
L 174.395604 132.085895 
L 174.743572 139.513263 
L 175.09154 141.635368 
L 175.439509 142.696421 
L 175.787477 146.940632 
L 176.135446 144.818526 
L 176.483414 143.757474 
L 176.831383 145.879579 
L 177.179351 151.184842 
L 177.527319 146.940632 
L 177.875288 149.062737 
L 178.571225 149.062737 
L 178.919193 152.245895 
L 179.267162 148.001684 
L 179.61513 149.062737 
L 179.963099 145.879579 
L 180.311067 146.940632 
L 180.659035 141.635368 
L 181.007004 139.513263 
L 181.354972 138.452211 
L 181.702941 131.024842 
L 182.050909 132.085895 
L 182.398878 126.780632 
L 182.746846 124.658526 
L 183.442783 124.658526 
L 183.790751 120.414316 
L 184.486688 118.292211 
L 184.834657 109.803789 
L 185.182625 115.109053 
L 185.530593 112.986947 
L 185.878562 115.109053 
L 186.22653 116.170105 
L 186.574499 107.681684 
L 186.922467 112.986947 
L 187.270436 109.803789 
L 187.618404 109.803789 
L 187.966372 110.864842 
L 188.314341 106.620632 
L 188.662309 107.681684 
L 189.010278 104.498526 
L 189.358246 104.498526 
L 190.054183 91.765895 
L 190.402151 86.460632 
L 190.75012 89.643789 
L 191.098088 85.399579 
L 191.446057 86.460632 
L 191.794025 80.094316 
L 192.141994 76.911158 
L 192.489962 76.911158 
L 192.83793 72.666947 
L 193.185899 74.789053 
L 193.533867 75.850105 
L 194.229804 80.094316 
L 194.577773 71.605895 
L 194.925741 75.850105 
L 195.273709 70.544842 
L 195.621678 74.789053 
L 195.969646 74.789053 
L 196.317615 71.605895 
L 197.013552 75.850105 
L 197.36152 73.728 
L 197.709488 63.117474 
L 198.057457 62.056421 
L 198.405425 57.812211 
L 198.753394 62.056421 
L 199.101362 64.178526 
L 199.797299 64.178526 
L 200.145267 79.033263 
L 200.841204 79.033263 
L 201.537141 81.155368 
L 202.233078 81.155368 
L 202.581046 84.338526 
L 203.276983 80.094316 
L 203.97292 89.643789 
L 204.320889 88.582737 
L 204.668857 92.826947 
L 205.016825 94.949053 
L 205.712762 102.376421 
L 206.060731 104.498526 
L 206.408699 104.498526 
L 206.756668 106.620632 
L 207.104636 104.498526 
L 207.452605 106.620632 
L 207.800573 103.437474 
L 208.49651 107.681684 
L 208.844478 107.681684 
L 209.192447 103.437474 
L 209.540415 108.742737 
L 210.58432 108.742737 
L 210.932289 109.803789 
L 211.280257 109.803789 
L 211.976194 111.925895 
L 212.324163 111.925895 
L 212.672131 115.109053 
L 213.020099 115.109053 
L 213.368068 114.048 
L 213.716036 115.109053 
L 214.064005 115.109053 
L 214.759942 117.231158 
L 215.10791 116.170105 
L 215.455878 116.170105 
L 215.803847 117.231158 
L 216.151815 122.536421 
L 216.499784 125.719579 
L 216.847752 123.597474 
L 217.195721 123.597474 
L 217.543689 124.658526 
L 217.891657 123.597474 
L 218.239626 121.475368 
L 218.587594 122.536421 
L 218.935563 126.780632 
L 219.283531 133.146947 
L 219.6315 132.085895 
L 219.979468 127.841684 
L 220.327436 126.780632 
L 221.023373 126.780632 
L 221.71931 131.024842 
L 222.067279 136.330105 
L 222.763215 136.330105 
L 223.111184 138.452211 
L 223.459152 137.391158 
L 223.807121 139.513263 
L 224.155089 139.513263 
L 224.503058 138.452211 
L 224.851026 140.574316 
L 225.198994 138.452211 
L 225.546963 143.757474 
L 225.894931 145.879579 
L 226.2429 145.879579 
L 226.590868 143.757474 
L 226.938837 145.879579 
L 227.286805 145.879579 
L 227.634773 143.757474 
L 227.982742 142.696421 
L 228.33071 139.513263 
L 228.678679 140.574316 
L 229.374616 132.085895 
L 229.722584 133.146947 
L 230.070552 129.963789 
L 230.418521 129.963789 
L 230.766489 126.780632 
L 231.114458 127.841684 
L 231.462426 121.475368 
L 231.810395 118.292211 
L 232.158363 116.170105 
L 232.506331 110.864842 
L 232.8543 114.048 
L 233.202268 108.742737 
L 233.550237 111.925895 
L 233.898205 109.803789 
L 234.246174 103.437474 
L 234.594142 106.620632 
L 234.94211 102.376421 
L 235.290079 93.888 
L 235.638047 92.826947 
L 235.986016 99.193263 
L 236.333984 93.888 
L 236.681953 103.437474 
L 237.029921 92.826947 
L 237.725858 101.315368 
L 238.073826 91.765895 
L 238.769763 100.254316 
L 239.117732 102.376421 
L 239.4657 107.681684 
L 239.813669 102.376421 
L 240.509605 102.376421 
L 240.857574 99.193263 
L 241.205542 107.681684 
L 241.553511 100.254316 
L 241.901479 109.803789 
L 242.249448 110.864842 
L 242.597416 116.170105 
L 242.945384 115.109053 
L 243.293353 116.170105 
L 243.641321 114.048 
L 243.98929 112.986947 
L 244.337258 105.559579 
L 244.685227 108.742737 
L 245.033195 108.742737 
L 245.381163 109.803789 
L 245.729132 104.498526 
L 246.0771 106.620632 
L 246.425069 107.681684 
L 246.773037 106.620632 
L 247.121006 108.742737 
L 247.468974 102.376421 
L 247.816942 107.681684 
L 248.164911 106.620632 
L 248.512879 111.925895 
L 248.860848 111.925895 
L 249.208816 114.048 
L 249.556785 112.986947 
L 249.904753 112.986947 
L 250.948658 116.170105 
L 251.296627 115.109053 
L 251.644595 119.353263 
L 251.992564 119.353263 
L 252.340532 120.414316 
L 252.6885 119.353263 
L 253.036469 117.231158 
L 253.732406 133.146947 
L 254.080374 126.780632 
L 255.124279 142.696421 
L 255.472248 143.757474 
L 256.168185 143.757474 
L 256.864122 141.635368 
L 257.21209 143.757474 
L 257.560058 142.696421 
L 257.908027 140.574316 
L 258.255995 145.879579 
L 258.603964 148.001684 
L 258.951932 143.757474 
L 259.299901 146.940632 
L 259.647869 148.001684 
L 259.995837 143.757474 
L 260.343806 146.940632 
L 260.691774 145.879579 
L 261.039743 149.062737 
L 261.387711 149.062737 
L 261.73568 152.245895 
L 262.083648 153.306947 
L 262.431616 153.306947 
L 263.475522 156.490105 
L 263.82349 154.368 
L 264.171459 153.306947 
L 264.519427 163.917474 
L 264.867395 156.490105 
L 265.215364 160.734316 
L 265.563332 161.795368 
L 265.911301 166.039579 
L 266.259269 162.856421 
L 267.303175 187.260632 
L 267.651143 188.321684 
L 267.999111 181.955368 
L 268.34708 188.321684 
L 268.695048 185.138526 
L 269.043017 180.894316 
L 269.390985 180.894316 
L 269.738954 171.344842 
L 270.086922 179.833263 
L 270.43489 181.955368 
L 270.782859 179.833263 
L 271.130827 185.138526 
L 271.478796 180.894316 
L 271.826764 178.772211 
L 272.174733 186.199579 
L 272.522701 173.466947 
L 272.870669 186.199579 
L 273.218638 187.260632 
L 273.566606 181.955368 
L 273.914575 172.405895 
L 274.262543 180.894316 
L 274.610512 178.772211 
L 275.306448 185.138526 
L 275.654417 179.833263 
L 276.002385 170.283789 
L 276.350354 172.405895 
L 276.698322 172.405895 
L 277.046291 171.344842 
L 277.394259 177.711158 
L 277.742227 170.283789 
L 278.090196 178.772211 
L 278.438164 175.589053 
L 278.786133 178.772211 
L 279.134101 168.161684 
L 279.48207 171.344842 
L 279.830038 170.283789 
L 280.178006 172.405895 
L 280.525975 171.344842 
L 280.873943 157.551158 
L 281.221912 162.856421 
L 281.56988 163.917474 
L 281.917849 153.306947 
L 282.265817 153.306947 
L 282.613785 151.184842 
L 282.961754 151.184842 
L 283.309722 143.757474 
L 284.005659 135.269053 
L 284.353628 135.269053 
L 284.701596 136.330105 
L 285.049564 131.024842 
L 285.397533 135.269053 
L 285.745501 126.780632 
L 286.09347 132.085895 
L 286.441438 118.292211 
L 286.789407 126.780632 
L 287.137375 119.353263 
L 287.833312 123.597474 
L 288.18128 112.986947 
L 288.529249 119.353263 
L 288.877217 119.353263 
L 289.225186 116.170105 
L 289.573154 106.620632 
L 289.921122 117.231158 
L 290.269091 100.254316 
L 290.617059 114.048 
L 290.965028 107.681684 
L 291.660965 111.925895 
L 292.008933 105.559579 
L 292.356901 112.986947 
L 292.70487 117.231158 
L 293.052838 118.292211 
L 293.748775 108.742737 
L 294.096744 112.986947 
L 294.444712 114.048 
L 294.792681 105.559579 
L 295.140649 112.986947 
L 295.488617 114.048 
L 296.184554 109.803789 
L 296.532523 115.109053 
L 296.880491 112.986947 
L 297.22846 115.109053 
L 297.576428 112.986947 
L 297.924396 115.109053 
L 298.272365 112.986947 
L 298.968302 115.109053 
L 299.31627 117.231158 
L 299.664239 118.292211 
L 300.012207 118.292211 
L 300.360175 120.414316 
L 300.708144 119.353263 
L 301.056112 119.353263 
L 301.404081 122.536421 
L 301.752049 122.536421 
L 302.100018 120.414316 
L 302.795954 124.658526 
L 303.143923 123.597474 
L 303.491891 123.597474 
L 304.187828 125.719579 
L 304.535797 124.658526 
L 304.883765 127.841684 
L 305.231733 125.719579 
L 305.579702 124.658526 
L 305.92767 124.658526 
L 306.623607 118.292211 
L 306.971576 121.475368 
L 307.319544 122.536421 
L 307.667512 122.536421 
L 308.015481 126.780632 
L 308.363449 126.780632 
L 308.711418 123.597474 
L 309.059386 126.780632 
L 309.407355 126.780632 
L 309.755323 125.719579 
L 310.103291 125.719579 
L 310.45126 128.902737 
L 311.147197 170.283789 
L 311.495165 171.344842 
L 312.191102 169.222737 
L 312.887039 171.344842 
L 313.235007 170.283789 
L 313.582976 176.650105 
L 313.930944 176.650105 
L 314.278913 174.528 
L 314.626881 175.589053 
L 314.974849 167.100632 
L 315.322818 173.466947 
L 315.670786 169.222737 
L 316.018755 183.016421 
L 316.366723 184.077474 
L 316.714692 183.016421 
L 317.06266 190.443789 
L 317.410628 189.382737 
L 317.758597 191.504842 
L 318.106565 188.321684 
L 318.454534 186.199579 
L 318.802502 195.749053 
L 319.150471 186.199579 
L 319.498439 186.199579 
L 319.846407 187.260632 
L 320.194376 191.504842 
L 320.890313 187.260632 
L 321.238281 181.955368 
L 321.58625 186.199579 
L 321.934218 184.077474 
L 322.282186 180.894316 
L 322.630155 187.260632 
L 322.978123 181.955368 
L 323.326092 188.321684 
L 323.67406 187.260632 
L 324.022029 190.443789 
L 324.369997 190.443789 
L 324.717966 192.565895 
L 325.065934 184.077474 
L 325.413902 187.260632 
L 325.761871 153.306947 
L 326.109839 178.772211 
L 326.457808 180.894316 
L 327.153745 171.344842 
L 327.501713 178.772211 
L 327.849681 171.344842 
L 328.19765 155.429053 
L 328.545618 175.589053 
L 328.893587 153.306947 
L 329.589524 146.940632 
L 329.937492 151.184842 
L 330.28546 139.513263 
L 330.633429 143.757474 
L 330.981397 142.696421 
L 331.329366 146.940632 
L 331.677334 148.001684 
L 332.025303 144.818526 
L 332.721239 142.696421 
L 333.069208 139.513263 
L 333.417176 143.757474 
L 333.765145 137.391158 
L 334.113113 133.146947 
L 334.461082 141.635368 
L 334.80905 132.085895 
L 335.157018 125.719579 
L 335.504987 117.231158 
L 335.852955 133.146947 
L 336.200924 135.269053 
L 336.548892 136.330105 
L 337.244829 124.658526 
L 337.592797 123.597474 
L 337.940766 128.902737 
L 338.288734 116.170105 
L 338.984671 128.902737 
L 339.33264 119.353263 
L 339.680608 118.292211 
L 340.376545 118.292211 
L 340.724513 117.231158 
L 341.072482 126.780632 
L 341.42045 118.292211 
L 341.768419 124.658526 
L 342.116387 125.719579 
L 342.464355 127.841684 
L 342.812324 122.536421 
L 343.160292 124.658526 
L 343.508261 123.597474 
L 343.856229 135.269053 
L 344.204198 139.513263 
L 344.552166 141.635368 
L 344.900134 142.696421 
L 345.596071 146.940632 
L 345.94404 152.245895 
L 346.292008 180.894316 
L 346.639977 187.260632 
L 346.987945 187.260632 
L 347.335913 191.504842 
L 347.683882 191.504842 
L 348.03185 189.382737 
L 348.379819 188.321684 
L 348.727787 198.932211 
L 349.423724 177.711158 
L 349.771692 173.466947 
L 350.119661 177.711158 
L 350.467629 188.321684 
L 350.815598 191.504842 
L 351.163566 189.382737 
L 351.511535 188.321684 
L 351.859503 193.626947 
L 352.207471 196.810105 
L 352.55544 191.504842 
L 353.251377 193.626947 
L 353.599345 196.810105 
L 353.947314 196.810105 
L 354.643251 204.237474 
L 354.991219 204.237474 
L 355.339187 206.359579 
L 355.687156 191.504842 
L 356.035124 210.603789 
L 356.383093 206.359579 
L 356.731061 196.810105 
L 357.07903 193.626947 
L 357.426998 203.176421 
L 357.774966 207.420632 
L 358.122935 209.542737 
L 358.470903 210.603789 
L 358.818872 215.909053 
L 359.16684 214.848 
L 359.514809 220.153263 
L 359.862777 211.664842 
L 360.210745 214.848 
L 360.558714 219.092211 
L 360.906682 221.214316 
L 361.254651 225.458526 
L 361.602619 227.580632 
L 361.950588 227.580632 
L 362.298556 225.458526 
L 362.646524 227.580632 
L 362.994493 223.336421 
L 363.342461 224.397474 
L 363.69043 230.763789 
L 364.038398 228.641684 
L 364.386367 229.702737 
L 365.082303 240.313263 
L 365.430272 231.824842 
L 365.77824 211.664842 
L 366.126209 212.725895 
L 366.474177 212.725895 
L 366.822146 220.153263 
L 367.170114 210.603789 
L 367.518082 209.542737 
L 367.866051 211.664842 
L 368.214019 209.542737 
L 368.561988 206.359579 
L 368.909956 202.115368 
L 369.257925 203.176421 
L 369.953861 191.504842 
L 370.30183 189.382737 
L 370.649798 186.199579 
L 370.997767 189.382737 
L 371.345735 181.955368 
L 372.041672 175.589053 
L 372.38964 171.344842 
L 372.737609 170.283789 
L 373.433546 162.856421 
L 373.781514 163.917474 
L 374.129483 162.856421 
L 374.477451 157.551158 
L 374.825419 144.818526 
L 375.173388 150.123789 
L 375.521356 144.818526 
L 375.869325 125.719579 
L 376.217293 131.024842 
L 376.565262 138.452211 
L 377.261198 125.719579 
L 377.609167 96.010105 
L 377.957135 100.254316 
L 378.305104 84.338526 
L 378.653072 76.911158 
L 379.001041 76.911158 
L 379.349009 84.338526 
L 379.696977 88.582737 
L 380.044946 87.521684 
L 380.392914 87.521684 
L 380.740883 84.338526 
L 381.088851 83.277474 
L 381.43682 81.155368 
L 381.784788 69.483789 
L 382.132757 69.483789 
L 382.480725 74.789053 
L 382.828693 68.422737 
L 383.176662 67.361684 
L 383.52463 65.239579 
L 383.872599 65.239579 
L 384.220567 74.789053 
L 384.568536 70.544842 
L 384.916504 68.422737 
L 385.264472 71.605895 
L 385.960409 73.728 
L 386.308378 75.850105 
L 386.656346 76.911158 
L 387.004315 73.728 
L 387.352283 76.911158 
L 387.700251 79.033263 
L 388.04822 80.094316 
L 388.396188 84.338526 
L 388.744157 77.972211 
L 389.092125 80.094316 
L 389.440094 81.155368 
L 389.788062 84.338526 
L 390.13603 84.338526 
L 390.483999 88.582737 
L 391.527904 94.949053 
L 392.571809 107.681684 
L 392.919778 109.803789 
L 393.267746 106.620632 
L 393.615715 109.803789 
L 393.963683 116.170105 
L 394.311652 115.109053 
L 394.65962 109.803789 
L 395.007588 110.864842 
L 395.355557 112.986947 
L 395.703525 116.170105 
L 396.051494 120.414316 
L 396.399462 126.780632 
L 396.747431 120.414316 
L 397.095399 121.475368 
L 397.443367 124.658526 
L 397.791336 124.658526 
L 398.139304 129.963789 
L 398.487273 131.024842 
L 398.487273 131.024842 
" style="fill:none;stroke:#ff7f0e;stroke-linecap:square;stroke-width:1.5;"/>
   </g>
   <g id="patch_3">
    <path d="M 57.6 307.584 
L 57.6 41.472 
" style="fill:none;stroke:#000000;stroke-linecap:square;stroke-linejoin:miter;stroke-width:0.8;"/>
   </g>
   <g id="patch_4">
    <path d="M 414.72 307.584 
L 414.72 41.472 
" style="fill:none;stroke:#000000;stroke-linecap:square;stroke-linejoin:miter;stroke-width:0.8;"/>
   </g>
   <g id="patch_5">
    <path d="M 57.6 307.584 
L 414.72 307.584 
" style="fill:none;stroke:#000000;stroke-linecap:square;stroke-linejoin:miter;stroke-width:0.8;"/>
   </g>
   <g id="patch_6">
    <path d="M 57.6 41.472 
L 414.72 41.472 
" style="fill:none;stroke:#000000;stroke-linecap:square;stroke-linejoin:miter;stroke-width:0.8;"/>
   </g>
   <g id="legend_1">
    <g id="patch_7">
     <path d="M 64.6 302.584 
L 138.270312 302.584 
Q 140.270312 302.584 140.270312 300.584 
L 140.270312 272.22775 
Q 140.270312 270.22775 138.270312 270.22775 
L 64.6 270.22775 
Q 62.6 270.22775 62.6 272.22775 
L 62.6 300.584 
Q 62.6 302.584 64.6 302.584 
z
" style="fill:#ffffff;opacity:0.8;stroke:#cccccc;stroke-linejoin:miter;"/>
    </g>
    <g id="line2d_13">
     <path d="M 66.6 278.326187 
L 86.6 278.326187 
" style="fill:none;stroke:#1f77b4;stroke-linecap:square;stroke-width:1.5;"/>
    </g>
    <g id="line2d_14"/>
    <g id="text_11">
     <!-- SAG -->
     <g transform="translate(94.6 281.826187)scale(0.1 -0.1)">
      <defs>
       <path d="M 3425 4513 
L 3425 3897 
Q 3066 4069 2747 4153 
Q 2428 4238 2131 4238 
Q 1616 4238 1336 4038 
Q 1056 3838 1056 3469 
Q 1056 3159 1242 3001 
Q 1428 2844 1947 2747 
L 2328 2669 
Q 3034 2534 3370 2195 
Q 3706 1856 3706 1288 
Q 3706 609 3251 259 
Q 2797 -91 1919 -91 
Q 1588 -91 1214 -16 
Q 841 59 441 206 
L 441 856 
Q 825 641 1194 531 
Q 1563 422 1919 422 
Q 2459 422 2753 634 
Q 3047 847 3047 1241 
Q 3047 1584 2836 1778 
Q 2625 1972 2144 2069 
L 1759 2144 
Q 1053 2284 737 2584 
Q 422 2884 422 3419 
Q 422 4038 858 4394 
Q 1294 4750 2059 4750 
Q 2388 4750 2728 4690 
Q 3069 4631 3425 4513 
z
" id="DejaVuSans-53" transform="scale(0.015625)"/>
       <path d="M 2188 4044 
L 1331 1722 
L 3047 1722 
L 2188 4044 
z
M 1831 4666 
L 2547 4666 
L 4325 0 
L 3669 0 
L 3244 1197 
L 1141 1197 
L 716 0 
L 50 0 
L 1831 4666 
z
" id="DejaVuSans-41" transform="scale(0.015625)"/>
       <path d="M 3809 666 
L 3809 1919 
L 2778 1919 
L 2778 2438 
L 4434 2438 
L 4434 434 
Q 4069 175 3628 42 
Q 3188 -91 2688 -91 
Q 1594 -91 976 548 
Q 359 1188 359 2328 
Q 359 3472 976 4111 
Q 1594 4750 2688 4750 
Q 3144 4750 3555 4637 
Q 3966 4525 4313 4306 
L 4313 3634 
Q 3963 3931 3569 4081 
Q 3175 4231 2741 4231 
Q 1884 4231 1454 3753 
Q 1025 3275 1025 2328 
Q 1025 1384 1454 906 
Q 1884 428 2741 428 
Q 3075 428 3337 486 
Q 3600 544 3809 666 
z
" id="DejaVuSans-47" transform="scale(0.015625)"/>
      </defs>
      <use xlink:href="#DejaVuSans-53"/>
      <use x="65.351562" xlink:href="#DejaVuSans-41"/>
      <use x="132.009766" xlink:href="#DejaVuSans-47"/>
     </g>
    </g>
    <g id="line2d_15">
     <path d="M 66.6 293.004312 
L 86.6 293.004312 
" style="fill:none;stroke:#ff7f0e;stroke-linecap:square;stroke-width:1.5;"/>
    </g>
    <g id="line2d_16"/>
    <g id="text_12">
     <!-- NABZUE -->
     <g transform="translate(94.6 296.504312)scale(0.1 -0.1)">
      <defs>
       <path d="M 628 4666 
L 1478 4666 
L 3547 763 
L 3547 4666 
L 4159 4666 
L 4159 0 
L 3309 0 
L 1241 3903 
L 1241 0 
L 628 0 
L 628 4666 
z
" id="DejaVuSans-4e" transform="scale(0.015625)"/>
       <path d="M 1259 2228 
L 1259 519 
L 2272 519 
Q 2781 519 3026 730 
Q 3272 941 3272 1375 
Q 3272 1813 3026 2020 
Q 2781 2228 2272 2228 
L 1259 2228 
z
M 1259 4147 
L 1259 2741 
L 2194 2741 
Q 2656 2741 2882 2914 
Q 3109 3088 3109 3444 
Q 3109 3797 2882 3972 
Q 2656 4147 2194 4147 
L 1259 4147 
z
M 628 4666 
L 2241 4666 
Q 2963 4666 3353 4366 
Q 3744 4066 3744 3513 
Q 3744 3084 3544 2831 
Q 3344 2578 2956 2516 
Q 3422 2416 3680 2098 
Q 3938 1781 3938 1306 
Q 3938 681 3513 340 
Q 3088 0 2303 0 
L 628 0 
L 628 4666 
z
" id="DejaVuSans-42" transform="scale(0.015625)"/>
       <path d="M 359 4666 
L 4025 4666 
L 4025 4184 
L 1075 531 
L 4097 531 
L 4097 0 
L 288 0 
L 288 481 
L 3238 4134 
L 359 4134 
L 359 4666 
z
" id="DejaVuSans-5a" transform="scale(0.015625)"/>
       <path d="M 556 4666 
L 1191 4666 
L 1191 1831 
Q 1191 1081 1462 751 
Q 1734 422 2344 422 
Q 2950 422 3222 751 
Q 3494 1081 3494 1831 
L 3494 4666 
L 4128 4666 
L 4128 1753 
Q 4128 841 3676 375 
Q 3225 -91 2344 -91 
Q 1459 -91 1007 375 
Q 556 841 556 1753 
L 556 4666 
z
" id="DejaVuSans-55" transform="scale(0.015625)"/>
       <path d="M 628 4666 
L 3578 4666 
L 3578 4134 
L 1259 4134 
L 1259 2753 
L 3481 2753 
L 3481 2222 
L 1259 2222 
L 1259 531 
L 3634 531 
L 3634 0 
L 628 0 
L 628 4666 
z
" id="DejaVuSans-45" transform="scale(0.015625)"/>
      </defs>
      <use xlink:href="#DejaVuSans-4e"/>
      <use x="74.804688" xlink:href="#DejaVuSans-41"/>
      <use x="143.212891" xlink:href="#DejaVuSans-42"/>
      <use x="211.816406" xlink:href="#DejaVuSans-5a"/>
      <use x="280.322266" xlink:href="#DejaVuSans-55"/>
      <use x="353.515625" xlink:href="#DejaVuSans-45"/>
     </g>
    </g>
   </g>
  </g>
 </g>
 <defs>
  <clipPath id="pc02198b72c">
   <rect height="266.112" width="357.12" x="57.6" y="41.472"/>
  </clipPath>
 </defs>
</svg>
