<?xml version="1.0" encoding="utf-8" standalone="no"?>
<!DOCTYPE svg PUBLIC "-//W3C//DTD SVG 1.1//EN"
  "http://www.w3.org/Graphics/SVG/1.1/DTD/svg11.dtd">
<svg height="288pt" version="1.1" viewBox="0 0 720 288" width="720pt" xmlns="http://www.w3.org/2000/svg" xmlns:xlink="http://www.w3.org/1999/xlink">
 <metadata>
  <rdf:RDF xmlns:cc="http://creativecommons.org/ns#" xmlns:dc="http://purl.org/dc/elements/1.1/" xmlns:rdf="http://www.w3.org/1999/02/22-rdf-syntax-ns#">
   <cc:Work>
    <dc:type rdf:resource="http://purl.org/dc/dcmitype/StillImage"/>
    <dc:date>2022-02-22T18:57:45.377803</dc:date>
    <dc:format>image/svg+xml</dc:format>
    <dc:creator>
     <cc:Agent>
      <dc:title>Matplotlib v3.4.3, https://matplotlib.org/</dc:title>
     </cc:Agent>
    </dc:creator>
   </cc:Work>
  </rdf:RDF>
 </metadata>
 <defs>
  <style type="text/css">*{stroke-linecap:butt;stroke-linejoin:round;}</style>
 </defs>
 <g id="figure_1">
  <g id="patch_1">
   <path d="M 0 288 
L 720 288 
L 720 0 
L 0 0 
z
" style="fill:none;"/>
  </g>
  <g id="axes_1">
   <g id="patch_2">
    <path d="M 90 252 
L 648 252 
L 648 34.56 
L 90 34.56 
z
" style="fill:#ffffff;"/>
   </g>
   <g id="matplotlib.axis_1">
    <g id="xtick_1">
     <g id="line2d_1">
      <defs>
       <path d="M 0 0 
L 0 3.5 
" id="m90755e7027" style="stroke:#000000;stroke-width:0.8;"/>
      </defs>
      <g>
       <use style="stroke:#000000;stroke-width:0.8;" x="115.363636" xlink:href="#m90755e7027" y="252"/>
      </g>
     </g>
     <g id="text_1">
      <!-- $\mathdefault{0}$ -->
      <g transform="translate(112.872969 265.918498)scale(0.1 -0.1)">
       <defs>
        <path d="M 2688 2025 
C 2688 2416 2682 3080 2413 3591 
C 2176 4039 1798 4198 1466 4198 
C 1158 4198 768 4058 525 3597 
C 269 3118 243 2524 243 2025 
C 243 1661 250 1106 448 619 
C 723 -39 1216 -128 1466 -128 
C 1760 -128 2208 -7 2470 600 
C 2662 1042 2688 1559 2688 2025 
z
M 1466 -26 
C 1056 -26 813 325 723 812 
C 653 1188 653 1738 653 2096 
C 653 2588 653 2997 736 3387 
C 858 3929 1216 4096 1466 4096 
C 1728 4096 2067 3923 2189 3400 
C 2272 3036 2278 2607 2278 2096 
C 2278 1680 2278 1169 2202 792 
C 2067 95 1690 -26 1466 -26 
z
" id="CMR17-30" transform="scale(0.015625)"/>
       </defs>
       <use transform="scale(0.996264)" xlink:href="#CMR17-30"/>
      </g>
     </g>
    </g>
    <g id="xtick_2">
     <g id="line2d_2">
      <g>
       <use style="stroke:#000000;stroke-width:0.8;" x="236.142857" xlink:href="#m90755e7027" y="252"/>
      </g>
     </g>
     <g id="text_2">
      <!-- $\mathdefault{5}$ -->
      <g transform="translate(233.65219 265.918498)scale(0.1 -0.1)">
       <defs>
        <path d="M 730 3692 
C 794 3666 1056 3584 1325 3584 
C 1920 3584 2246 3911 2432 4100 
C 2432 4157 2432 4192 2394 4192 
C 2387 4192 2374 4192 2323 4163 
C 2099 4058 1837 3973 1517 3973 
C 1325 3973 1037 3999 723 4139 
C 653 4171 640 4171 634 4171 
C 602 4171 595 4164 595 4037 
L 595 2203 
C 595 2089 595 2057 659 2057 
C 691 2057 704 2070 736 2114 
C 941 2401 1222 2522 1542 2522 
C 1766 2522 2246 2382 2246 1289 
C 2246 1085 2246 715 2054 421 
C 1894 159 1645 25 1370 25 
C 947 25 518 320 403 814 
C 429 807 480 795 506 795 
C 589 795 749 840 749 1038 
C 749 1210 627 1280 506 1280 
C 358 1280 262 1190 262 1011 
C 262 454 704 -128 1382 -128 
C 2042 -128 2669 440 2669 1264 
C 2669 2030 2170 2624 1549 2624 
C 1222 2624 947 2503 730 2274 
L 730 3692 
z
" id="CMR17-35" transform="scale(0.015625)"/>
       </defs>
       <use transform="scale(0.996264)" xlink:href="#CMR17-35"/>
      </g>
     </g>
    </g>
    <g id="xtick_3">
     <g id="line2d_3">
      <g>
       <use style="stroke:#000000;stroke-width:0.8;" x="356.922078" xlink:href="#m90755e7027" y="252"/>
      </g>
     </g>
     <g id="text_3">
      <!-- $\mathdefault{10}$ -->
      <g transform="translate(351.940743 265.918498)scale(0.1 -0.1)">
       <defs>
        <path d="M 1702 4058 
C 1702 4192 1696 4192 1606 4192 
C 1357 3916 979 3827 621 3827 
C 602 3827 570 3827 563 3808 
C 557 3795 557 3782 557 3648 
C 755 3648 1088 3686 1344 3839 
L 1344 461 
C 1344 236 1331 160 781 160 
L 589 160 
L 589 0 
C 896 0 1216 0 1523 0 
C 1830 0 2150 0 2458 0 
L 2458 160 
L 2266 160 
C 1715 160 1702 230 1702 458 
L 1702 4058 
z
" id="CMR17-31" transform="scale(0.015625)"/>
       </defs>
       <use transform="scale(0.996264)" xlink:href="#CMR17-31"/>
       <use transform="translate(45.690477 0)scale(0.996264)" xlink:href="#CMR17-30"/>
      </g>
     </g>
    </g>
    <g id="xtick_4">
     <g id="line2d_4">
      <g>
       <use style="stroke:#000000;stroke-width:0.8;" x="477.701299" xlink:href="#m90755e7027" y="252"/>
      </g>
     </g>
     <g id="text_4">
      <!-- $\mathdefault{15}$ -->
      <g transform="translate(472.719963 265.918498)scale(0.1 -0.1)">
       <use transform="scale(0.996264)" xlink:href="#CMR17-31"/>
       <use transform="translate(45.690477 0)scale(0.996264)" xlink:href="#CMR17-35"/>
      </g>
     </g>
    </g>
    <g id="xtick_5">
     <g id="line2d_5">
      <g>
       <use style="stroke:#000000;stroke-width:0.8;" x="598.480519" xlink:href="#m90755e7027" y="252"/>
      </g>
     </g>
     <g id="text_5">
      <!-- $\mathdefault{20}$ -->
      <g transform="translate(593.499184 265.918498)scale(0.1 -0.1)">
       <defs>
        <path d="M 2669 989 
L 2554 989 
C 2490 536 2438 459 2413 420 
C 2381 369 1920 369 1830 369 
L 602 369 
C 832 619 1280 1072 1824 1597 
C 2214 1967 2669 2402 2669 3035 
C 2669 3790 2067 4224 1395 4224 
C 691 4224 262 3604 262 3030 
C 262 2780 448 2748 525 2748 
C 589 2748 781 2787 781 3010 
C 781 3207 614 3264 525 3264 
C 486 3264 448 3258 422 3245 
C 544 3790 915 4058 1306 4058 
C 1862 4058 2227 3617 2227 3035 
C 2227 2479 1901 2000 1536 1584 
L 262 146 
L 262 0 
L 2515 0 
L 2669 989 
z
" id="CMR17-32" transform="scale(0.015625)"/>
       </defs>
       <use transform="scale(0.996264)" xlink:href="#CMR17-32"/>
       <use transform="translate(45.690477 0)scale(0.996264)" xlink:href="#CMR17-30"/>
      </g>
     </g>
    </g>
    <g id="text_6">
     <!-- Time -->
     <g transform="translate(355.668189 280.157857)scale(0.12 -0.12)">
      <defs>
       <path d="M 3981 4326 
L 288 4326 
L 179 2918 
L 294 2918 
C 378 3976 467 4160 1453 4160 
C 1568 4160 1754 4160 1805 4154 
C 1926 4135 1926 4058 1926 3912 
L 1926 459 
C 1926 230 1907 160 1376 160 
L 1197 160 
L 1197 0 
C 1504 0 1824 0 2138 0 
C 2451 0 2771 0 3078 0 
L 3078 160 
L 2899 160 
C 2368 160 2349 230 2349 459 
L 2349 3912 
C 2349 4052 2349 4129 2464 4154 
C 2515 4160 2701 4160 2816 4160 
C 3795 4160 3891 3976 3974 2918 
L 4090 2918 
L 3981 4326 
z
" id="CMR17-54" transform="scale(0.015625)"/>
       <path d="M 992 3909 
C 992 4049 877 4170 730 4170 
C 589 4170 467 4056 467 3909 
C 467 3769 582 3648 730 3648 
C 870 3648 992 3763 992 3909 
z
M 243 2706 
L 243 2541 
C 602 2541 653 2502 653 2197 
L 653 427 
C 653 184 627 153 218 153 
L 218 -13 
C 371 0 646 0 806 0 
C 960 0 1222 0 1370 -13 
L 1370 153 
C 992 153 979 191 979 420 
L 979 2776 
L 243 2706 
z
" id="CMR17-69" transform="scale(0.015625)"/>
       <path d="M 4326 1933 
C 4326 2252 4269 2790 3507 2790 
C 3072 2790 2771 2496 2656 2151 
L 2650 2151 
C 2573 2676 2195 2790 1837 2790 
C 1331 2790 1069 2400 973 2144 
L 966 2144 
L 966 2790 
L 211 2720 
L 211 2554 
C 589 2554 646 2515 646 2208 
L 646 428 
C 646 184 621 153 211 153 
L 211 -13 
C 365 0 646 0 813 0 
C 979 0 1267 0 1421 -13 
L 1421 153 
C 1011 153 986 178 986 428 
L 986 1658 
C 986 2247 1344 2688 1792 2688 
C 2266 2688 2317 2266 2317 1958 
L 2317 428 
C 2317 184 2291 153 1882 153 
L 1882 -13 
C 2035 0 2317 0 2483 0 
C 2650 0 2938 0 3091 -13 
L 3091 153 
C 2682 153 2656 178 2656 428 
L 2656 1658 
C 2656 2247 3014 2688 3462 2688 
C 3936 2688 3987 2266 3987 1958 
L 3987 428 
C 3987 184 3962 153 3552 153 
L 3552 -13 
C 3706 0 3987 0 4154 0 
C 4320 0 4608 0 4762 -13 
L 4762 153 
C 4352 153 4326 178 4326 428 
L 4326 1933 
z
" id="CMR17-6d" transform="scale(0.015625)"/>
       <path d="M 2438 1472 
C 2464 1498 2464 1511 2464 1576 
C 2464 2238 2118 2816 1389 2816 
C 710 2816 173 2169 173 1383 
C 173 551 781 -64 1459 -64 
C 2176 -64 2458 607 2458 740 
C 2458 784 2419 784 2406 784 
C 2362 784 2355 771 2330 696 
C 2189 265 1837 51 1504 51 
C 1229 51 954 203 781 480 
C 582 803 582 1176 582 1472 
L 2438 1472 
z
M 589 1568 
C 634 2505 1126 2714 1382 2714 
C 1818 2714 2112 2297 2118 1568 
L 589 1568 
z
" id="CMR17-65" transform="scale(0.015625)"/>
      </defs>
      <use transform="scale(0.996264)" xlink:href="#CMR17-54"/>
      <use transform="translate(66.509881 0)scale(0.996264)" xlink:href="#CMR17-69"/>
      <use transform="translate(91.380939 0)scale(0.996264)" xlink:href="#CMR17-6d"/>
      <use transform="translate(168.300529 0)scale(0.996264)" xlink:href="#CMR17-65"/>
     </g>
    </g>
   </g>
   <g id="matplotlib.axis_2">
    <g id="ytick_1">
     <g id="line2d_6">
      <defs>
       <path d="M 0 0 
L -3.5 0 
" id="md77230c8bf" style="stroke:#000000;stroke-width:0.8;"/>
      </defs>
      <g>
       <use style="stroke:#000000;stroke-width:0.8;" x="90" xlink:href="#md77230c8bf" y="224.674652"/>
      </g>
     </g>
     <g id="text_7">
      <!-- $\mathdefault{−2.5}$ -->
      <g transform="translate(62.521177 228.133902)scale(0.1 -0.1)">
       <defs>
        <path d="M 4218 1472 
C 4326 1472 4442 1472 4442 1600 
C 4442 1728 4326 1728 4218 1728 
L 755 1728 
C 646 1728 531 1728 531 1600 
C 531 1472 646 1472 755 1472 
L 4218 1472 
z
" id="CMSY10-0" transform="scale(0.015625)"/>
        <path d="M 1178 307 
C 1178 492 1024 619 870 619 
C 685 619 557 466 557 313 
C 557 128 710 0 864 0 
C 1050 0 1178 153 1178 307 
z
" id="CMMI12-3a" transform="scale(0.015625)"/>
       </defs>
       <use transform="scale(0.996264)" xlink:href="#CMSY10-0"/>
       <use transform="translate(77.487468 0)scale(0.996264)" xlink:href="#CMR17-32"/>
       <use transform="translate(123.177945 0)scale(0.996264)" xlink:href="#CMMI12-3a"/>
       <use transform="translate(150.275122 0)scale(0.996264)" xlink:href="#CMR17-35"/>
      </g>
     </g>
    </g>
    <g id="ytick_2">
     <g id="line2d_7">
      <g>
       <use style="stroke:#000000;stroke-width:0.8;" x="90" xlink:href="#md77230c8bf" y="195.605134"/>
      </g>
     </g>
     <g id="text_8">
      <!-- $\mathdefault{0.0}$ -->
      <g transform="translate(70.269921 199.064383)scale(0.1 -0.1)">
       <use transform="scale(0.996264)" xlink:href="#CMR17-30"/>
       <use transform="translate(45.690477 0)scale(0.996264)" xlink:href="#CMMI12-3a"/>
       <use transform="translate(72.787654 0)scale(0.996264)" xlink:href="#CMR17-30"/>
      </g>
     </g>
    </g>
    <g id="ytick_3">
     <g id="line2d_8">
      <g>
       <use style="stroke:#000000;stroke-width:0.8;" x="90" xlink:href="#md77230c8bf" y="166.535615"/>
      </g>
     </g>
     <g id="text_9">
      <!-- $\mathdefault{2.5}$ -->
      <g transform="translate(70.269921 169.994864)scale(0.1 -0.1)">
       <use transform="scale(0.996264)" xlink:href="#CMR17-32"/>
       <use transform="translate(45.690477 0)scale(0.996264)" xlink:href="#CMMI12-3a"/>
       <use transform="translate(72.787654 0)scale(0.996264)" xlink:href="#CMR17-35"/>
      </g>
     </g>
    </g>
    <g id="ytick_4">
     <g id="line2d_9">
      <g>
       <use style="stroke:#000000;stroke-width:0.8;" x="90" xlink:href="#md77230c8bf" y="137.466096"/>
      </g>
     </g>
     <g id="text_10">
      <!-- $\mathdefault{5.0}$ -->
      <g transform="translate(70.269921 140.925345)scale(0.1 -0.1)">
       <use transform="scale(0.996264)" xlink:href="#CMR17-35"/>
       <use transform="translate(45.690477 0)scale(0.996264)" xlink:href="#CMMI12-3a"/>
       <use transform="translate(72.787654 0)scale(0.996264)" xlink:href="#CMR17-30"/>
      </g>
     </g>
    </g>
    <g id="ytick_5">
     <g id="line2d_10">
      <g>
       <use style="stroke:#000000;stroke-width:0.8;" x="90" xlink:href="#md77230c8bf" y="108.396578"/>
      </g>
     </g>
     <g id="text_11">
      <!-- $\mathdefault{7.5}$ -->
      <g transform="translate(70.269921 111.855827)scale(0.1 -0.1)">
       <defs>
        <path d="M 2886 3941 
L 2886 4081 
L 1382 4081 
C 634 4081 621 4165 595 4288 
L 480 4288 
L 294 3094 
L 410 3094 
C 429 3215 474 3540 550 3661 
C 589 3712 1062 3712 1171 3712 
L 2579 3712 
L 1869 2661 
C 1395 1954 1069 999 1069 165 
C 1069 89 1069 -128 1299 -128 
C 1530 -128 1530 89 1530 171 
L 1530 465 
C 1530 1508 1709 2196 2003 2636 
L 2886 3941 
z
" id="CMR17-37" transform="scale(0.015625)"/>
       </defs>
       <use transform="scale(0.996264)" xlink:href="#CMR17-37"/>
       <use transform="translate(45.690477 0)scale(0.996264)" xlink:href="#CMMI12-3a"/>
       <use transform="translate(72.787654 0)scale(0.996264)" xlink:href="#CMR17-35"/>
      </g>
     </g>
    </g>
    <g id="ytick_6">
     <g id="line2d_11">
      <g>
       <use style="stroke:#000000;stroke-width:0.8;" x="90" xlink:href="#md77230c8bf" y="79.327059"/>
      </g>
     </g>
     <g id="text_12">
      <!-- $\mathdefault{10.0}$ -->
      <g transform="translate(65.288586 82.786308)scale(0.1 -0.1)">
       <use transform="scale(0.996264)" xlink:href="#CMR17-31"/>
       <use transform="translate(45.690477 0)scale(0.996264)" xlink:href="#CMR17-30"/>
       <use transform="translate(91.380954 0)scale(0.996264)" xlink:href="#CMMI12-3a"/>
       <use transform="translate(118.478131 0)scale(0.996264)" xlink:href="#CMR17-30"/>
      </g>
     </g>
    </g>
    <g id="ytick_7">
     <g id="line2d_12">
      <g>
       <use style="stroke:#000000;stroke-width:0.8;" x="90" xlink:href="#md77230c8bf" y="50.25754"/>
      </g>
     </g>
     <g id="text_13">
      <!-- $\mathdefault{12.5}$ -->
      <g transform="translate(65.288586 53.716789)scale(0.1 -0.1)">
       <use transform="scale(0.996264)" xlink:href="#CMR17-31"/>
       <use transform="translate(45.690477 0)scale(0.996264)" xlink:href="#CMR17-32"/>
       <use transform="translate(91.380954 0)scale(0.996264)" xlink:href="#CMMI12-3a"/>
       <use transform="translate(118.478131 0)scale(0.996264)" xlink:href="#CMR17-35"/>
      </g>
     </g>
    </g>
    <g id="text_14">
     <!-- Value -->
     <g transform="translate(56.196582 157.585234)rotate(-90)scale(0.12 -0.12)">
      <defs>
       <path d="M 3776 3745 
C 3834 3886 3936 4160 4365 4160 
L 4365 4332 
C 4218 4319 4051 4319 3891 4319 
C 3738 4319 3475 4319 3328 4332 
L 3328 4160 
C 3648 4160 3661 3936 3661 3898 
C 3661 3827 3642 3783 3622 3732 
L 2362 446 
L 1043 3886 
C 1024 3931 1011 3963 1011 3994 
C 1011 4160 1267 4160 1402 4160 
L 1402 4319 
C 1197 4319 896 4319 685 4319 
C 518 4319 218 4319 64 4332 
L 64 4160 
C 435 4160 506 4135 582 3931 
L 2106 -26 
C 2138 -115 2144 -128 2214 -128 
C 2285 -128 2291 -115 2323 -26 
L 3776 3745 
z
" id="CMR17-56" transform="scale(0.015625)"/>
       <path d="M 2304 1653 
C 2304 2072 2304 2294 2035 2543 
C 1798 2752 1523 2816 1306 2816 
C 800 2816 435 2407 435 1971 
C 435 1728 627 1728 666 1728 
C 749 1728 896 1778 896 1954 
C 896 2112 774 2181 666 2181 
C 640 2181 608 2174 589 2168 
C 723 2592 1069 2714 1293 2714 
C 1613 2714 1965 2429 1965 1885 
L 1965 1600 
C 1587 1600 1133 1549 774 1357 
C 371 1133 256 813 256 570 
C 256 77 832 -64 1171 -64 
C 1523 -64 1850 139 1990 511 
C 2003 233 2182 -18 2464 -18 
C 2598 -18 2938 70 2938 567 
L 2938 920 
L 2822 920 
L 2822 562 
C 2822 178 2650 128 2566 128 
C 2304 128 2304 458 2304 738 
L 2304 1653 
z
M 1965 870 
C 1965 317 1568 38 1216 38 
C 896 38 646 275 646 570 
C 646 761 730 1100 1101 1305 
C 1408 1478 1760 1504 1965 1504 
L 1965 870 
z
" id="CMR17-61" transform="scale(0.015625)"/>
       <path d="M 979 4396 
L 218 4326 
L 218 4160 
C 595 4160 653 4122 653 3817 
L 653 426 
C 653 184 627 153 218 153 
L 218 -13 
C 371 0 653 0 813 0 
C 979 0 1261 0 1414 -13 
L 1414 153 
C 1005 153 979 178 979 426 
L 979 4396 
z
" id="CMR17-6c" transform="scale(0.015625)"/>
       <path d="M 1882 2693 
L 1882 2528 
C 2259 2528 2317 2489 2317 2186 
L 2317 1032 
C 2317 500 2029 38 1555 38 
C 1030 38 986 348 986 678 
L 986 2763 
L 211 2693 
L 211 2528 
C 467 2528 640 2528 646 2274 
L 646 1058 
C 646 633 646 361 813 183 
C 896 101 1056 -64 1517 -64 
C 2061 -64 2272 377 2323 506 
L 2330 506 
L 2330 -63 
L 3091 -63 
L 3091 128 
C 2714 128 2656 166 2656 473 
L 2656 2763 
L 1882 2693 
z
" id="CMR17-75" transform="scale(0.015625)"/>
      </defs>
      <use transform="scale(0.996264)" xlink:href="#CMR17-56"/>
      <use transform="translate(61.265174 0)scale(0.996264)" xlink:href="#CMR17-61"/>
      <use transform="translate(106.955652 0)scale(0.996264)" xlink:href="#CMR17-6c"/>
      <use transform="translate(131.82671 0)scale(0.996264)" xlink:href="#CMR17-75"/>
      <use transform="translate(182.72208 0)scale(0.996264)" xlink:href="#CMR17-65"/>
     </g>
    </g>
   </g>
   <g id="line2d_13">
    <path clip-path="url(#p2b60452f67)" d="M 115.363636 137.466096 
L 139.519481 143.28 
L 163.675325 125.838289 
L 187.831169 67.699251 
L 211.987013 131.652193 
L 236.142857 149.093904 
L 260.298701 90.954866 
L 284.454545 114.210481 
L 308.61039 102.582674 
L 332.766234 96.76877 
L 356.922078 114.210481 
L 381.077922 125.838289 
L 405.233766 120.024385 
L 429.38961 44.443636 
L 453.545455 149.093904 
L 477.701299 137.466096 
L 501.857143 137.466096 
L 526.012987 131.652193 
L 550.168831 120.024385 
L 574.324675 242.116364 
L 598.480519 125.838289 
L 622.636364 114.210481 
" style="fill:none;stroke:#ff0000;stroke-linecap:square;stroke-width:1.5;"/>
    <defs>
     <path d="M 0 1.5 
C 0.397805 1.5 0.77937 1.341951 1.06066 1.06066 
C 1.341951 0.77937 1.5 0.397805 1.5 0 
C 1.5 -0.397805 1.341951 -0.77937 1.06066 -1.06066 
C 0.77937 -1.341951 0.397805 -1.5 0 -1.5 
C -0.397805 -1.5 -0.77937 -1.341951 -1.06066 -1.06066 
C -1.341951 -0.77937 -1.5 -0.397805 -1.5 0 
C -1.5 0.397805 -1.341951 0.77937 -1.06066 1.06066 
C -0.77937 1.341951 -0.397805 1.5 0 1.5 
z
" id="m204406f805" style="stroke:#ff0000;"/>
    </defs>
    <g clip-path="url(#p2b60452f67)">
     <use style="fill:#ff0000;stroke:#ff0000;" x="115.363636" xlink:href="#m204406f805" y="137.466096"/>
     <use style="fill:#ff0000;stroke:#ff0000;" x="139.519481" xlink:href="#m204406f805" y="143.28"/>
     <use style="fill:#ff0000;stroke:#ff0000;" x="163.675325" xlink:href="#m204406f805" y="125.838289"/>
     <use style="fill:#ff0000;stroke:#ff0000;" x="187.831169" xlink:href="#m204406f805" y="67.699251"/>
     <use style="fill:#ff0000;stroke:#ff0000;" x="211.987013" xlink:href="#m204406f805" y="131.652193"/>
     <use style="fill:#ff0000;stroke:#ff0000;" x="236.142857" xlink:href="#m204406f805" y="149.093904"/>
     <use style="fill:#ff0000;stroke:#ff0000;" x="260.298701" xlink:href="#m204406f805" y="90.954866"/>
     <use style="fill:#ff0000;stroke:#ff0000;" x="284.454545" xlink:href="#m204406f805" y="114.210481"/>
     <use style="fill:#ff0000;stroke:#ff0000;" x="308.61039" xlink:href="#m204406f805" y="102.582674"/>
     <use style="fill:#ff0000;stroke:#ff0000;" x="332.766234" xlink:href="#m204406f805" y="96.76877"/>
     <use style="fill:#ff0000;stroke:#ff0000;" x="356.922078" xlink:href="#m204406f805" y="114.210481"/>
     <use style="fill:#ff0000;stroke:#ff0000;" x="381.077922" xlink:href="#m204406f805" y="125.838289"/>
     <use style="fill:#ff0000;stroke:#ff0000;" x="405.233766" xlink:href="#m204406f805" y="120.024385"/>
     <use style="fill:#ff0000;stroke:#ff0000;" x="429.38961" xlink:href="#m204406f805" y="44.443636"/>
     <use style="fill:#ff0000;stroke:#ff0000;" x="453.545455" xlink:href="#m204406f805" y="149.093904"/>
     <use style="fill:#ff0000;stroke:#ff0000;" x="477.701299" xlink:href="#m204406f805" y="137.466096"/>
     <use style="fill:#ff0000;stroke:#ff0000;" x="501.857143" xlink:href="#m204406f805" y="137.466096"/>
     <use style="fill:#ff0000;stroke:#ff0000;" x="526.012987" xlink:href="#m204406f805" y="131.652193"/>
     <use style="fill:#ff0000;stroke:#ff0000;" x="550.168831" xlink:href="#m204406f805" y="120.024385"/>
     <use style="fill:#ff0000;stroke:#ff0000;" x="574.324675" xlink:href="#m204406f805" y="242.116364"/>
     <use style="fill:#ff0000;stroke:#ff0000;" x="598.480519" xlink:href="#m204406f805" y="125.838289"/>
     <use style="fill:#ff0000;stroke:#ff0000;" x="622.636364" xlink:href="#m204406f805" y="114.210481"/>
    </g>
   </g>
   <g id="line2d_14">
    <path clip-path="url(#p2b60452f67)" d="M 115.363636 137.466096 
L 139.519481 143.28 
L 163.675325 125.838289 
L 187.831169 105.618638 
L 211.987013 128.874253 
L 236.142857 132.068432 
L 260.298701 108.812817 
L 284.454545 114.210481 
L 308.61039 102.582674 
L 332.766234 96.76877 
L 356.922078 114.210481 
L 381.077922 125.838289 
L 405.233766 120.024385 
L 429.38961 110.635886 
L 453.545455 133.891501 
L 477.701299 137.466096 
L 501.857143 137.466096 
L 526.012987 131.652193 
L 550.168831 123.210564 
L 574.324675 146.466178 
L 598.480519 125.838289 
L 622.636364 114.210481 
" style="fill:none;stroke:#008000;stroke-dasharray:5.55,2.4;stroke-dashoffset:0;stroke-width:1.5;"/>
    <defs>
     <path d="M -3 3 
L 3 -3 
M -3 -3 
L 3 3 
" id="m6dfd220f26" style="stroke:#008000;"/>
    </defs>
    <g clip-path="url(#p2b60452f67)">
     <use style="fill:#008000;stroke:#008000;" x="115.363636" xlink:href="#m6dfd220f26" y="137.466096"/>
     <use style="fill:#008000;stroke:#008000;" x="139.519481" xlink:href="#m6dfd220f26" y="143.28"/>
     <use style="fill:#008000;stroke:#008000;" x="163.675325" xlink:href="#m6dfd220f26" y="125.838289"/>
     <use style="fill:#008000;stroke:#008000;" x="187.831169" xlink:href="#m6dfd220f26" y="105.618638"/>
     <use style="fill:#008000;stroke:#008000;" x="211.987013" xlink:href="#m6dfd220f26" y="128.874253"/>
     <use style="fill:#008000;stroke:#008000;" x="236.142857" xlink:href="#m6dfd220f26" y="132.068432"/>
     <use style="fill:#008000;stroke:#008000;" x="260.298701" xlink:href="#m6dfd220f26" y="108.812817"/>
     <use style="fill:#008000;stroke:#008000;" x="284.454545" xlink:href="#m6dfd220f26" y="114.210481"/>
     <use style="fill:#008000;stroke:#008000;" x="308.61039" xlink:href="#m6dfd220f26" y="102.582674"/>
     <use style="fill:#008000;stroke:#008000;" x="332.766234" xlink:href="#m6dfd220f26" y="96.76877"/>
     <use style="fill:#008000;stroke:#008000;" x="356.922078" xlink:href="#m6dfd220f26" y="114.210481"/>
     <use style="fill:#008000;stroke:#008000;" x="381.077922" xlink:href="#m6dfd220f26" y="125.838289"/>
     <use style="fill:#008000;stroke:#008000;" x="405.233766" xlink:href="#m6dfd220f26" y="120.024385"/>
     <use style="fill:#008000;stroke:#008000;" x="429.38961" xlink:href="#m6dfd220f26" y="110.635886"/>
     <use style="fill:#008000;stroke:#008000;" x="453.545455" xlink:href="#m6dfd220f26" y="133.891501"/>
     <use style="fill:#008000;stroke:#008000;" x="477.701299" xlink:href="#m6dfd220f26" y="137.466096"/>
     <use style="fill:#008000;stroke:#008000;" x="501.857143" xlink:href="#m6dfd220f26" y="137.466096"/>
     <use style="fill:#008000;stroke:#008000;" x="526.012987" xlink:href="#m6dfd220f26" y="131.652193"/>
     <use style="fill:#008000;stroke:#008000;" x="550.168831" xlink:href="#m6dfd220f26" y="123.210564"/>
     <use style="fill:#008000;stroke:#008000;" x="574.324675" xlink:href="#m6dfd220f26" y="146.466178"/>
     <use style="fill:#008000;stroke:#008000;" x="598.480519" xlink:href="#m6dfd220f26" y="125.838289"/>
     <use style="fill:#008000;stroke:#008000;" x="622.636364" xlink:href="#m6dfd220f26" y="114.210481"/>
    </g>
   </g>
   <g id="line2d_15">
    <path clip-path="url(#p2b60452f67)" d="M 115.363636 137.466096 
L 139.519481 143.28 
L 163.675325 120.024385 
L 187.831169 108.396578 
L 211.987013 131.652193 
L 236.142857 114.210481 
L 260.298701 90.954866 
L 284.454545 114.210481 
L 308.61039 102.582674 
L 332.766234 96.76877 
L 356.922078 114.210481 
L 381.077922 125.838289 
L 405.233766 102.582674 
L 429.38961 125.838289 
L 453.545455 149.093904 
L 477.701299 137.466096 
L 501.857143 137.466096 
L 526.012987 131.652193 
L 550.168831 154.907807 
L 574.324675 149.093904 
L 598.480519 125.838289 
L 622.636364 114.210481 
" style="fill:none;stroke:#000000;stroke-dasharray:1.5,2.475;stroke-dashoffset:0;stroke-width:1.5;"/>
    <defs>
     <path d="M 0 3 
C 0.795609 3 1.55874 2.683901 2.12132 2.12132 
C 2.683901 1.55874 3 0.795609 3 0 
C 3 -0.795609 2.683901 -1.55874 2.12132 -2.12132 
C 1.55874 -2.683901 0.795609 -3 0 -3 
C -0.795609 -3 -1.55874 -2.683901 -2.12132 -2.12132 
C -2.683901 -1.55874 -3 -0.795609 -3 0 
C -3 0.795609 -2.683901 1.55874 -2.12132 2.12132 
C -1.55874 2.683901 -0.795609 3 0 3 
z
" id="md356f7acbb" style="stroke:#000000;"/>
    </defs>
    <g clip-path="url(#p2b60452f67)">
     <use style="fill-opacity:0;stroke:#000000;" x="115.363636" xlink:href="#md356f7acbb" y="137.466096"/>
     <use style="fill-opacity:0;stroke:#000000;" x="139.519481" xlink:href="#md356f7acbb" y="143.28"/>
     <use style="fill-opacity:0;stroke:#000000;" x="163.675325" xlink:href="#md356f7acbb" y="120.024385"/>
     <use style="fill-opacity:0;stroke:#000000;" x="187.831169" xlink:href="#md356f7acbb" y="108.396578"/>
     <use style="fill-opacity:0;stroke:#000000;" x="211.987013" xlink:href="#md356f7acbb" y="131.652193"/>
     <use style="fill-opacity:0;stroke:#000000;" x="236.142857" xlink:href="#md356f7acbb" y="114.210481"/>
     <use style="fill-opacity:0;stroke:#000000;" x="260.298701" xlink:href="#md356f7acbb" y="90.954866"/>
     <use style="fill-opacity:0;stroke:#000000;" x="284.454545" xlink:href="#md356f7acbb" y="114.210481"/>
     <use style="fill-opacity:0;stroke:#000000;" x="308.61039" xlink:href="#md356f7acbb" y="102.582674"/>
     <use style="fill-opacity:0;stroke:#000000;" x="332.766234" xlink:href="#md356f7acbb" y="96.76877"/>
     <use style="fill-opacity:0;stroke:#000000;" x="356.922078" xlink:href="#md356f7acbb" y="114.210481"/>
     <use style="fill-opacity:0;stroke:#000000;" x="381.077922" xlink:href="#md356f7acbb" y="125.838289"/>
     <use style="fill-opacity:0;stroke:#000000;" x="405.233766" xlink:href="#md356f7acbb" y="102.582674"/>
     <use style="fill-opacity:0;stroke:#000000;" x="429.38961" xlink:href="#md356f7acbb" y="125.838289"/>
     <use style="fill-opacity:0;stroke:#000000;" x="453.545455" xlink:href="#md356f7acbb" y="149.093904"/>
     <use style="fill-opacity:0;stroke:#000000;" x="477.701299" xlink:href="#md356f7acbb" y="137.466096"/>
     <use style="fill-opacity:0;stroke:#000000;" x="501.857143" xlink:href="#md356f7acbb" y="137.466096"/>
     <use style="fill-opacity:0;stroke:#000000;" x="526.012987" xlink:href="#md356f7acbb" y="131.652193"/>
     <use style="fill-opacity:0;stroke:#000000;" x="550.168831" xlink:href="#md356f7acbb" y="154.907807"/>
     <use style="fill-opacity:0;stroke:#000000;" x="574.324675" xlink:href="#md356f7acbb" y="149.093904"/>
     <use style="fill-opacity:0;stroke:#000000;" x="598.480519" xlink:href="#md356f7acbb" y="125.838289"/>
     <use style="fill-opacity:0;stroke:#000000;" x="622.636364" xlink:href="#md356f7acbb" y="114.210481"/>
    </g>
   </g>
   <g id="patch_3">
    <path d="M 90 252 
L 90 34.56 
" style="fill:none;stroke:#000000;stroke-linecap:square;stroke-linejoin:miter;stroke-width:0.8;"/>
   </g>
   <g id="patch_4">
    <path d="M 648 252 
L 648 34.56 
" style="fill:none;stroke:#000000;stroke-linecap:square;stroke-linejoin:miter;stroke-width:0.8;"/>
   </g>
   <g id="patch_5">
    <path d="M 90 252 
L 648 252 
" style="fill:none;stroke:#000000;stroke-linecap:square;stroke-linejoin:miter;stroke-width:0.8;"/>
   </g>
   <g id="patch_6">
    <path d="M 90 34.56 
L 648 34.56 
" style="fill:none;stroke:#000000;stroke-linecap:square;stroke-linejoin:miter;stroke-width:0.8;"/>
   </g>
   <g id="legend_1">
    <g id="patch_7">
     <path d="M 568.512865 84.371535 
L 641 84.371535 
Q 643 84.371535 643 82.371535 
L 643 41.56 
Q 643 39.56 641 39.56 
L 568.512865 39.56 
Q 566.512865 39.56 566.512865 41.56 
L 566.512865 82.371535 
Q 566.512865 84.371535 568.512865 84.371535 
z
" style="fill:#ffffff;opacity:0.8;stroke:#cccccc;stroke-linejoin:miter;"/>
    </g>
    <g id="line2d_16">
     <path d="M 570.512865 47.06 
L 590.512865 47.06 
" style="fill:none;stroke:#ff0000;stroke-linecap:square;stroke-width:1.5;"/>
    </g>
    <g id="line2d_17">
     <g>
      <use style="fill:#ff0000;stroke:#ff0000;" x="580.512865" xlink:href="#m204406f805" y="47.06"/>
     </g>
    </g>
    <g id="text_15">
     <!-- Observed -->
     <g transform="translate(598.512865 50.56)scale(0.1 -0.1)">
      <defs>
       <path d="M 4307 2135 
C 4307 3437 3366 4416 2304 4416 
C 1216 4416 294 3424 294 2135 
C 294 845 1229 -128 2298 -128 
C 3392 -128 4307 864 4307 2135 
z
M 2304 -13 
C 1574 -13 781 711 781 2217 
C 781 3716 1651 4301 2298 4301 
C 2976 4301 3821 3698 3821 2217 
C 3821 686 3008 -13 2304 -13 
z
" id="CMR17-4f" transform="scale(0.015625)"/>
       <path d="M 960 4396 
L 198 4326 
L 198 4160 
C 576 4160 634 4122 634 3817 
L 634 -13 
L 749 -13 
L 934 441 
C 1120 141 1395 -64 1766 -64 
C 2406 -64 3053 500 3053 1370 
C 3053 2188 2477 2790 1830 2790 
C 1434 2790 1152 2579 960 2330 
L 960 4396 
z
M 973 2004 
C 973 2118 973 2138 1062 2272 
C 1312 2657 1670 2688 1792 2688 
C 1984 2688 2643 2585 2643 1376 
C 2643 108 1888 38 1734 38 
C 1536 38 1248 114 1043 486 
C 973 608 973 621 973 735 
L 973 2004 
z
" id="CMR17-62" transform="scale(0.015625)"/>
       <path d="M 1978 2697 
C 1978 2813 1971 2819 1933 2819 
C 1907 2819 1901 2813 1824 2717 
C 1805 2691 1747 2626 1728 2601 
C 1523 2819 1235 2819 1126 2819 
C 416 2819 160 2447 160 2076 
C 160 1498 813 1365 998 1325 
C 1402 1243 1542 1217 1677 1101 
C 1760 1025 1901 884 1901 654 
C 1901 384 1747 38 1158 38 
C 602 38 403 460 288 1021 
C 269 1110 269 1117 218 1117 
C 166 1117 160 1110 160 983 
L 160 63 
C 160 -51 166 -58 205 -58 
C 237 -58 243 -51 275 0 
C 314 57 410 211 448 276 
C 576 103 800 -64 1158 -64 
C 1792 -64 2131 283 2131 784 
C 2131 1112 1958 1285 1875 1362 
C 1683 1561 1459 1606 1190 1657 
C 838 1735 390 1825 390 2217 
C 390 2383 480 2737 1126 2737 
C 1811 2737 1850 2094 1862 1888 
C 1869 1856 1901 1849 1920 1849 
C 1978 1849 1978 1869 1978 1978 
L 1978 2697 
z
" id="CMR17-73" transform="scale(0.015625)"/>
       <path d="M 960 1497 
C 960 2112 1222 2688 1702 2688 
C 1747 2688 1792 2682 1837 2662 
C 1837 2662 1696 2617 1696 2452 
C 1696 2298 1818 2234 1914 2234 
C 1990 2234 2131 2279 2131 2458 
C 2131 2663 1926 2790 1709 2790 
C 1222 2790 1011 2317 947 2093 
L 941 2093 
L 941 2790 
L 198 2720 
L 198 2554 
C 576 2554 634 2515 634 2208 
L 634 428 
C 634 184 608 153 198 153 
L 198 -13 
C 352 0 646 0 813 0 
C 998 0 1325 0 1498 -13 
L 1498 153 
C 1037 153 960 153 960 440 
L 960 1497 
z
" id="CMR17-72" transform="scale(0.015625)"/>
       <path d="M 2502 2163 
C 2560 2304 2662 2560 3034 2560 
L 3034 2726 
C 2912 2726 2752 2726 2630 2726 
C 2496 2726 2285 2726 2157 2732 
L 2157 2566 
C 2317 2553 2406 2477 2406 2311 
C 2406 2253 2406 2240 2368 2151 
L 1664 377 
L 902 2286 
C 864 2369 864 2381 864 2407 
C 864 2560 1075 2560 1171 2560 
L 1171 2732 
C 1018 2726 736 2726 576 2726 
C 403 2726 205 2726 64 2732 
L 64 2560 
C 307 2560 442 2560 518 2362 
L 1446 44 
C 1485 -51 1491 -64 1549 -64 
C 1606 -64 1613 -51 1651 44 
L 2502 2163 
z
" id="CMR17-76" transform="scale(0.015625)"/>
       <path d="M 1869 4326 
L 1869 4160 
C 2246 4160 2304 4122 2304 3820 
L 2304 2345 
C 2278 2377 2016 2790 1498 2790 
C 845 2790 211 2208 211 1364 
C 211 525 806 -64 1434 -64 
C 1978 -64 2259 337 2291 380 
L 2291 -63 
L 3066 -63 
L 3066 128 
C 2688 128 2630 166 2630 473 
L 2630 4396 
L 1869 4326 
z
M 2291 755 
C 2291 563 2176 390 2029 262 
C 1811 70 1594 38 1472 38 
C 1286 38 621 134 621 1356 
C 621 2612 1363 2688 1530 2688 
C 1824 2688 2061 2522 2208 2291 
C 2291 2157 2291 2138 2291 2023 
L 2291 755 
z
" id="CMR17-64" transform="scale(0.015625)"/>
      </defs>
      <use transform="scale(0.996264)" xlink:href="#CMR17-4f"/>
      <use transform="translate(71.714788 0)scale(0.996264)" xlink:href="#CMR17-62"/>
      <use transform="translate(122.610158 0)scale(0.996264)" xlink:href="#CMR17-73"/>
      <use transform="translate(158.411496 0)scale(0.996264)" xlink:href="#CMR17-65"/>
      <use transform="translate(198.897156 0)scale(0.996264)" xlink:href="#CMR17-72"/>
      <use transform="translate(234.177924 0)scale(0.996264)" xlink:href="#CMR17-76"/>
      <use transform="translate(279.868386 0)scale(0.996264)" xlink:href="#CMR17-65"/>
      <use transform="translate(320.354046 0)scale(0.996264)" xlink:href="#CMR17-64"/>
     </g>
    </g>
    <g id="line2d_18">
     <path d="M 570.512865 60.997178 
L 590.512865 60.997178 
" style="fill:none;stroke:#008000;stroke-dasharray:5.55,2.4;stroke-dashoffset:0;stroke-width:1.5;"/>
    </g>
    <g id="line2d_19">
     <g>
      <use style="fill:#008000;stroke:#008000;" x="580.512865" xlink:href="#m6dfd220f26" y="60.997178"/>
     </g>
    </g>
    <g id="text_16">
     <!-- Global -->
     <g transform="translate(598.512865 64.497178)scale(0.1 -0.1)">
      <defs>
       <path d="M 3974 1233 
C 3974 1473 3994 1505 4390 1505 
L 4390 1670 
C 4237 1664 3891 1664 3718 1664 
C 3539 1664 3040 1664 2797 1664 
L 2797 1505 
L 2989 1505 
C 3539 1505 3552 1434 3552 1201 
L 3552 774 
C 3552 63 2720 63 2522 63 
C 1862 63 781 511 781 2160 
C 781 3808 1843 4250 2464 4250 
C 3187 4250 3712 3626 3834 2741 
C 3846 2664 3846 2651 3904 2651 
C 3974 2651 3974 2664 3974 2779 
L 3974 4288 
C 3974 4402 3968 4409 3930 4409 
C 3904 4409 3898 4402 3853 4326 
L 3571 3791 
C 3258 4187 2874 4416 2381 4416 
C 1286 4416 294 3456 294 2148 
C 294 845 1267 -128 2394 -128 
C 2912 -128 3418 56 3616 417 
C 3725 158 3904 -20 3936 -20 
C 3968 -20 3974 -13 3974 100 
L 3974 1233 
z
" id="CMR17-47" transform="scale(0.015625)"/>
       <path d="M 2758 1356 
C 2758 2176 2163 2816 1466 2816 
C 768 2816 173 2176 173 1356 
C 173 551 768 -64 1466 -64 
C 2163 -64 2758 551 2758 1356 
z
M 1466 51 
C 1165 51 909 230 762 480 
C 602 767 582 1126 582 1408 
C 582 1677 595 2010 762 2298 
C 890 2509 1139 2714 1466 2714 
C 1754 2714 1997 2554 2150 2330 
C 2349 2029 2349 1607 2349 1408 
C 2349 1158 2336 775 2163 467 
C 1984 173 1709 51 1466 51 
z
" id="CMR17-6f" transform="scale(0.015625)"/>
      </defs>
      <use transform="scale(0.996264)" xlink:href="#CMR17-47"/>
      <use transform="translate(72.355346 0)scale(0.996264)" xlink:href="#CMR17-6c"/>
      <use transform="translate(97.226404 0)scale(0.996264)" xlink:href="#CMR17-6f"/>
      <use transform="translate(142.916882 0)scale(0.996264)" xlink:href="#CMR17-62"/>
      <use transform="translate(193.812251 0)scale(0.996264)" xlink:href="#CMR17-61"/>
      <use transform="translate(239.502728 0)scale(0.996264)" xlink:href="#CMR17-6c"/>
     </g>
    </g>
    <g id="line2d_20">
     <path d="M 570.512865 74.934357 
L 590.512865 74.934357 
" style="fill:none;stroke:#000000;stroke-dasharray:1.5,2.475;stroke-dashoffset:0;stroke-width:1.5;"/>
    </g>
    <g id="line2d_21">
     <g>
      <use style="fill-opacity:0;stroke:#000000;" x="580.512865" xlink:href="#md356f7acbb" y="74.934357"/>
     </g>
    </g>
    <g id="text_17">
     <!-- Local -->
     <g transform="translate(598.512865 78.434357)scale(0.1 -0.1)">
      <defs>
       <path d="M 3469 1615 
L 3354 1615 
C 3302 983 3219 166 2125 166 
L 1530 166 
C 1274 166 1261 197 1261 414 
L 1261 3898 
C 1261 4129 1274 4192 1760 4192 
L 1901 4192 
L 1901 4352 
C 1638 4352 1331 4352 1069 4352 
C 870 4352 512 4352 326 4352 
L 326 4192 
C 768 4192 838 4192 838 3905 
L 838 452 
C 838 166 768 166 326 166 
L 326 0 
L 3315 0 
L 3469 1615 
z
" id="CMR17-4c" transform="scale(0.015625)"/>
       <path d="M 2234 2240 
C 2112 2240 1933 2240 1933 2017 
C 1933 1838 2080 1787 2163 1787 
C 2208 1787 2394 1807 2394 2024 
C 2394 2467 1958 2803 1466 2803 
C 787 2803 211 2178 211 1363 
C 211 516 813 -64 1466 -64 
C 2259 -64 2458 677 2458 748 
C 2458 774 2451 793 2406 793 
C 2362 793 2355 787 2330 703 
C 2163 180 1798 51 1523 51 
C 1114 51 621 427 621 1369 
C 621 2338 1094 2688 1472 2688 
C 1722 2688 2093 2573 2234 2240 
z
" id="CMR17-63" transform="scale(0.015625)"/>
      </defs>
      <use transform="scale(0.996264)" xlink:href="#CMR17-4c"/>
      <use transform="translate(57.381408 0)scale(0.996264)" xlink:href="#CMR17-6f"/>
      <use transform="translate(105.674324 0)scale(0.996264)" xlink:href="#CMR17-63"/>
      <use transform="translate(146.159984 0)scale(0.996264)" xlink:href="#CMR17-61"/>
      <use transform="translate(191.850461 0)scale(0.996264)" xlink:href="#CMR17-6c"/>
     </g>
    </g>
   </g>
  </g>
 </g>
 <defs>
  <clipPath id="p2b60452f67">
   <rect height="217.44" width="558" x="90" y="34.56"/>
  </clipPath>
 </defs>
</svg>
